M48
; DRILL file {KiCad 5.1.9} date Sat Feb 13 11:33:11 2021
; FORMAT={-:-/ absolute / inch / decimal}
; #@! TF.CreationDate,2021-02-13T11:33:11+01:00
; #@! TF.GenerationSoftware,Kicad,Pcbnew,5.1.9
FMAT,2
INCH
T1C0.0315
T2C0.0394
T3C0.1063
%
G90
G05
T1
X5.2Y-4.1031
X5.2Y-4.3
X5.7Y-3.0
X6.1Y-3.0
T2
X4.9Y-3.0
X4.9Y-3.1
X4.9Y-3.2
X5.1Y-3.0
X5.1Y-3.1
X5.1Y-3.4
X5.1Y-3.5
X5.1Y-3.6
X5.3Y-2.9
X5.3Y-3.0
X5.3Y-3.1
X5.3Y-3.2
X5.3Y-3.3
X5.3Y-3.4
X5.3Y-3.5
X5.3Y-3.6
X5.5Y-3.0
X5.5Y-3.1
X6.2Y-2.9
X6.2Y-3.0
X6.2Y-3.1
X6.2Y-3.2
X6.2Y-3.3
X6.2Y-3.4
X6.2Y-3.5
X6.2Y-3.6
X6.4Y-2.9
X6.4Y-3.0
X6.4Y-3.1
X6.4Y-3.2
X6.4Y-3.3
X6.4Y-3.5
X6.4Y-3.6
X6.4Y-3.7
X6.4Y-3.8
T3
X4.9213Y-2.7165
X4.9213Y-3.8583
X6.6535Y-2.7165
X6.6535Y-3.8583
T0
M30
