%TF.GenerationSoftware,KiCad,Pcbnew,5.1.9*%
%TF.CreationDate,2021-02-17T23:05:45+01:00*%
%TF.ProjectId,airsmiley,61697273-6d69-46c6-9579-2e6b69636164,v1*%
%TF.SameCoordinates,Original*%
%TF.FileFunction,Legend,Bot*%
%TF.FilePolarity,Positive*%
%FSLAX46Y46*%
G04 Gerber Fmt 4.6, Leading zero omitted, Abs format (unit mm)*
G04 Created by KiCad (PCBNEW 5.1.9) date 2021-02-17 23:05:45*
%MOMM*%
%LPD*%
G01*
G04 APERTURE LIST*
%ADD10C,0.300000*%
G04 APERTURE END LIST*
D10*
X139241904Y-89036666D02*
X140194285Y-89036666D01*
X139051428Y-88465238D02*
X139718095Y-90465238D01*
X140384761Y-88465238D01*
X141051428Y-88465238D02*
X141051428Y-89798571D01*
X141051428Y-90465238D02*
X140956190Y-90370000D01*
X141051428Y-90274761D01*
X141146666Y-90370000D01*
X141051428Y-90465238D01*
X141051428Y-90274761D01*
X142003809Y-88465238D02*
X142003809Y-89798571D01*
X142003809Y-89417619D02*
X142099047Y-89608095D01*
X142194285Y-89703333D01*
X142384761Y-89798571D01*
X142575238Y-89798571D01*
X144670476Y-88560476D02*
X144956190Y-88465238D01*
X145432380Y-88465238D01*
X145622857Y-88560476D01*
X145718095Y-88655714D01*
X145813333Y-88846190D01*
X145813333Y-89036666D01*
X145718095Y-89227142D01*
X145622857Y-89322380D01*
X145432380Y-89417619D01*
X145051428Y-89512857D01*
X144860952Y-89608095D01*
X144765714Y-89703333D01*
X144670476Y-89893809D01*
X144670476Y-90084285D01*
X144765714Y-90274761D01*
X144860952Y-90370000D01*
X145051428Y-90465238D01*
X145527619Y-90465238D01*
X145813333Y-90370000D01*
X146670476Y-88465238D02*
X146670476Y-89798571D01*
X146670476Y-89608095D02*
X146765714Y-89703333D01*
X146956190Y-89798571D01*
X147241904Y-89798571D01*
X147432380Y-89703333D01*
X147527619Y-89512857D01*
X147527619Y-88465238D01*
X147527619Y-89512857D02*
X147622857Y-89703333D01*
X147813333Y-89798571D01*
X148099047Y-89798571D01*
X148289523Y-89703333D01*
X148384761Y-89512857D01*
X148384761Y-88465238D01*
X149337142Y-88465238D02*
X149337142Y-89798571D01*
X149337142Y-90465238D02*
X149241904Y-90370000D01*
X149337142Y-90274761D01*
X149432380Y-90370000D01*
X149337142Y-90465238D01*
X149337142Y-90274761D01*
X150575238Y-88465238D02*
X150384761Y-88560476D01*
X150289523Y-88750952D01*
X150289523Y-90465238D01*
X152099047Y-88560476D02*
X151908571Y-88465238D01*
X151527619Y-88465238D01*
X151337142Y-88560476D01*
X151241904Y-88750952D01*
X151241904Y-89512857D01*
X151337142Y-89703333D01*
X151527619Y-89798571D01*
X151908571Y-89798571D01*
X152099047Y-89703333D01*
X152194285Y-89512857D01*
X152194285Y-89322380D01*
X151241904Y-89131904D01*
X152860952Y-89798571D02*
X153337142Y-88465238D01*
X153813333Y-89798571D02*
X153337142Y-88465238D01*
X153146666Y-87989047D01*
X153051428Y-87893809D01*
X152860952Y-87798571D01*
X140575238Y-86974761D02*
X140670476Y-87070000D01*
X140860952Y-87165238D01*
X141337142Y-87165238D01*
X141527619Y-87070000D01*
X141622857Y-86974761D01*
X141718095Y-86784285D01*
X141718095Y-86593809D01*
X141622857Y-86308095D01*
X140480000Y-85165238D01*
X141718095Y-85165238D01*
X142956190Y-87165238D02*
X143146666Y-87165238D01*
X143337142Y-87070000D01*
X143432380Y-86974761D01*
X143527619Y-86784285D01*
X143622857Y-86403333D01*
X143622857Y-85927142D01*
X143527619Y-85546190D01*
X143432380Y-85355714D01*
X143337142Y-85260476D01*
X143146666Y-85165238D01*
X142956190Y-85165238D01*
X142765714Y-85260476D01*
X142670476Y-85355714D01*
X142575238Y-85546190D01*
X142480000Y-85927142D01*
X142480000Y-86403333D01*
X142575238Y-86784285D01*
X142670476Y-86974761D01*
X142765714Y-87070000D01*
X142956190Y-87165238D01*
X144384761Y-86974761D02*
X144480000Y-87070000D01*
X144670476Y-87165238D01*
X145146666Y-87165238D01*
X145337142Y-87070000D01*
X145432380Y-86974761D01*
X145527619Y-86784285D01*
X145527619Y-86593809D01*
X145432380Y-86308095D01*
X144289523Y-85165238D01*
X145527619Y-85165238D01*
X147432380Y-85165238D02*
X146289523Y-85165238D01*
X146860952Y-85165238D02*
X146860952Y-87165238D01*
X146670476Y-86879523D01*
X146480000Y-86689047D01*
X146289523Y-86593809D01*
X149622857Y-86498571D02*
X150099047Y-85165238D01*
X150575238Y-86498571D01*
X152384761Y-85165238D02*
X151241904Y-85165238D01*
X151813333Y-85165238D02*
X151813333Y-87165238D01*
X151622857Y-86879523D01*
X151432380Y-86689047D01*
X151241904Y-86593809D01*
M02*
