%TF.GenerationSoftware,KiCad,Pcbnew,5.1.9*%
%TF.CreationDate,2021-02-13T11:33:13+01:00*%
%TF.ProjectId,airsmiley,61697273-6d69-46c6-9579-2e6b69636164,v1*%
%TF.SameCoordinates,Original*%
%TF.FileFunction,Soldermask,Top*%
%TF.FilePolarity,Negative*%
%FSLAX46Y46*%
G04 Gerber Fmt 4.6, Leading zero omitted, Abs format (unit mm)*
G04 Created by KiCad (PCBNEW 5.1.9) date 2021-02-13 11:33:13*
%MOMM*%
%LPD*%
G01*
G04 APERTURE LIST*
%ADD10C,0.150000*%
%ADD11O,1.700000X1.700000*%
%ADD12R,1.700000X1.700000*%
%ADD13O,1.600000X1.600000*%
%ADD14C,1.600000*%
%ADD15C,2.700000*%
%ADD16O,2.000000X1.600000*%
%ADD17R,2.000000X2.000000*%
G04 APERTURE END LIST*
D10*
X153500000Y-84000000D02*
X153500000Y-83500000D01*
X153000000Y-84000000D02*
X153000000Y-83500000D01*
X153250000Y-84500000D02*
X153250000Y-84000000D01*
X152000000Y-84250000D02*
X152250000Y-84250000D01*
X152250000Y-83750000D02*
X152000000Y-83750000D01*
X152750000Y-84000000D02*
X152500000Y-84000000D01*
X153250000Y-82750000D02*
X153250000Y-82500000D01*
X153250000Y-83500000D02*
X153250000Y-83250000D01*
X152750000Y-83000000D02*
X152250000Y-83000000D01*
X152750000Y-82500000D02*
X152750000Y-84500000D01*
X151750000Y-83500000D02*
X153750000Y-83500000D01*
X151750000Y-84500000D02*
X151750000Y-82500000D01*
X153750000Y-84500000D02*
X151750000Y-84500000D01*
X153750000Y-82500000D02*
X153750000Y-84500000D01*
X151750000Y-82500000D02*
X153750000Y-82500000D01*
X136835595Y-83952380D02*
X136835595Y-82952380D01*
X137216547Y-82952380D01*
X137311785Y-83000000D01*
X137359404Y-83047619D01*
X137407023Y-83142857D01*
X137407023Y-83285714D01*
X137359404Y-83380952D01*
X137311785Y-83428571D01*
X137216547Y-83476190D01*
X136835595Y-83476190D01*
X138407023Y-83857142D02*
X138359404Y-83904761D01*
X138216547Y-83952380D01*
X138121309Y-83952380D01*
X137978452Y-83904761D01*
X137883214Y-83809523D01*
X137835595Y-83714285D01*
X137787976Y-83523809D01*
X137787976Y-83380952D01*
X137835595Y-83190476D01*
X137883214Y-83095238D01*
X137978452Y-83000000D01*
X138121309Y-82952380D01*
X138216547Y-82952380D01*
X138359404Y-83000000D01*
X138407023Y-83047619D01*
X139168928Y-83428571D02*
X139311785Y-83476190D01*
X139359404Y-83523809D01*
X139407023Y-83619047D01*
X139407023Y-83761904D01*
X139359404Y-83857142D01*
X139311785Y-83904761D01*
X139216547Y-83952380D01*
X138835595Y-83952380D01*
X138835595Y-82952380D01*
X139168928Y-82952380D01*
X139264166Y-83000000D01*
X139311785Y-83047619D01*
X139359404Y-83142857D01*
X139359404Y-83238095D01*
X139311785Y-83333333D01*
X139264166Y-83380952D01*
X139168928Y-83428571D01*
X138835595Y-83428571D01*
X139835595Y-83857142D02*
X139883214Y-83904761D01*
X139835595Y-83952380D01*
X139787976Y-83904761D01*
X139835595Y-83857142D01*
X139835595Y-83952380D01*
X139835595Y-83333333D02*
X139883214Y-83380952D01*
X139835595Y-83428571D01*
X139787976Y-83380952D01*
X139835595Y-83333333D01*
X139835595Y-83428571D01*
X140978452Y-83285714D02*
X141168928Y-83952380D01*
X141359404Y-83476190D01*
X141549880Y-83952380D01*
X141740357Y-83285714D01*
X142549880Y-83285714D02*
X142549880Y-83952380D01*
X142121309Y-83285714D02*
X142121309Y-83809523D01*
X142168928Y-83904761D01*
X142264166Y-83952380D01*
X142407023Y-83952380D01*
X142502261Y-83904761D01*
X142549880Y-83857142D01*
X143645119Y-83476190D02*
X143597500Y-83428571D01*
X143502261Y-83380952D01*
X143407023Y-83380952D01*
X143311785Y-83428571D01*
X143264166Y-83476190D01*
X143216547Y-83571428D01*
X143216547Y-83666666D01*
X143264166Y-83761904D01*
X143311785Y-83809523D01*
X143407023Y-83857142D01*
X143502261Y-83857142D01*
X143597500Y-83809523D01*
X143645119Y-83761904D01*
X143645119Y-83380952D02*
X143645119Y-83761904D01*
X143692738Y-83809523D01*
X143740357Y-83809523D01*
X143835595Y-83761904D01*
X143883214Y-83666666D01*
X143883214Y-83428571D01*
X143787976Y-83285714D01*
X143645119Y-83190476D01*
X143454642Y-83142857D01*
X143264166Y-83190476D01*
X143121309Y-83285714D01*
X143026071Y-83428571D01*
X142978452Y-83619047D01*
X143026071Y-83809523D01*
X143121309Y-83952380D01*
X143264166Y-84047619D01*
X143454642Y-84095238D01*
X143645119Y-84047619D01*
X143787976Y-83952380D01*
X144311785Y-83952380D02*
X144311785Y-82952380D01*
X144740357Y-83952380D02*
X144740357Y-83428571D01*
X144692738Y-83333333D01*
X144597500Y-83285714D01*
X144454642Y-83285714D01*
X144359404Y-83333333D01*
X144311785Y-83380952D01*
X145073690Y-83285714D02*
X145454642Y-83285714D01*
X145216547Y-82952380D02*
X145216547Y-83809523D01*
X145264166Y-83904761D01*
X145359404Y-83952380D01*
X145454642Y-83952380D01*
X145930833Y-83952380D02*
X145835595Y-83904761D01*
X145787976Y-83809523D01*
X145787976Y-82952380D01*
X146216547Y-83285714D02*
X146407023Y-83952380D01*
X146597500Y-83476190D01*
X146787976Y-83952380D01*
X146978452Y-83285714D01*
X147740357Y-83904761D02*
X147645119Y-83952380D01*
X147454642Y-83952380D01*
X147359404Y-83904761D01*
X147311785Y-83809523D01*
X147311785Y-83428571D01*
X147359404Y-83333333D01*
X147454642Y-83285714D01*
X147645119Y-83285714D01*
X147740357Y-83333333D01*
X147787976Y-83428571D01*
X147787976Y-83523809D01*
X147311785Y-83619047D01*
X148216547Y-83952380D02*
X148216547Y-83285714D01*
X148216547Y-82952380D02*
X148168928Y-83000000D01*
X148216547Y-83047619D01*
X148264166Y-83000000D01*
X148216547Y-82952380D01*
X148216547Y-83047619D01*
X148597500Y-83285714D02*
X149121309Y-83285714D01*
X148597500Y-83952380D01*
X149121309Y-83952380D01*
X149502261Y-83857142D02*
X149549880Y-83904761D01*
X149502261Y-83952380D01*
X149454642Y-83904761D01*
X149502261Y-83857142D01*
X149502261Y-83952380D01*
X150407023Y-83952380D02*
X150407023Y-83428571D01*
X150359404Y-83333333D01*
X150264166Y-83285714D01*
X150073690Y-83285714D01*
X149978452Y-83333333D01*
X150407023Y-83904761D02*
X150311785Y-83952380D01*
X150073690Y-83952380D01*
X149978452Y-83904761D01*
X149930833Y-83809523D01*
X149930833Y-83714285D01*
X149978452Y-83619047D01*
X150073690Y-83571428D01*
X150311785Y-83571428D01*
X150407023Y-83523809D01*
X150740357Y-83285714D02*
X151121309Y-83285714D01*
X150883214Y-82952380D02*
X150883214Y-83809523D01*
X150930833Y-83904761D01*
X151026071Y-83952380D01*
X151121309Y-83952380D01*
D11*
%TO.C,J_RST_1*%
X129540000Y-76200000D03*
D12*
X129540000Y-78740000D03*
%TD*%
D13*
%TO.C,R1*%
X154940000Y-76200000D03*
D14*
X144780000Y-76200000D03*
%TD*%
%TO.C,C1*%
X132080000Y-104220000D03*
X132080000Y-109220000D03*
%TD*%
D15*
%TO.C,H4*%
X169000000Y-69000000D03*
%TD*%
%TO.C,H3*%
X125000000Y-69000000D03*
%TD*%
%TO.C,H2*%
X169000000Y-98000000D03*
%TD*%
%TO.C,H1*%
X125000000Y-98000000D03*
%TD*%
D11*
%TO.C,J_WS2812B_1*%
X124460000Y-81280000D03*
X124460000Y-78740000D03*
D12*
X124460000Y-76200000D03*
%TD*%
D11*
%TO.C,J_OLED_1*%
X162560000Y-96520000D03*
X162560000Y-93980000D03*
X162560000Y-91440000D03*
D12*
X162560000Y-88900000D03*
%TD*%
D11*
%TO.C,J_DHT22*%
X129540000Y-91440000D03*
X129540000Y-88900000D03*
D12*
X129540000Y-86360000D03*
%TD*%
D11*
%TO.C,J1*%
X139700000Y-78740000D03*
D12*
X139700000Y-76200000D03*
%TD*%
D11*
%TO.C,J_CCS811*%
X162560000Y-83820000D03*
X162560000Y-81280000D03*
X162560000Y-78740000D03*
X162560000Y-76200000D03*
D12*
X162560000Y-73660000D03*
%TD*%
D16*
%TO.C,U1*%
X157480000Y-73660000D03*
X157480000Y-76200000D03*
X157480000Y-78740000D03*
X157480000Y-81280000D03*
X157480000Y-83820000D03*
X157480000Y-86360000D03*
X157480000Y-88900000D03*
X157480000Y-91440000D03*
X134620000Y-91440000D03*
X134620000Y-88900000D03*
X134620000Y-86360000D03*
X134620000Y-83820000D03*
X134620000Y-81280000D03*
X134620000Y-78740000D03*
D17*
X134620000Y-73660000D03*
D16*
X134620000Y-76200000D03*
%TD*%
M02*
