%TF.GenerationSoftware,KiCad,Pcbnew,5.1.8*%
%TF.CreationDate,2020-11-27T01:12:46+01:00*%
%TF.ProjectId,co2box,636f3262-6f78-42e6-9b69-6361645f7063,v0*%
%TF.SameCoordinates,Original*%
%TF.FileFunction,Copper,L2,Bot*%
%TF.FilePolarity,Positive*%
%FSLAX46Y46*%
G04 Gerber Fmt 4.6, Leading zero omitted, Abs format (unit mm)*
G04 Created by KiCad (PCBNEW 5.1.8) date 2020-11-27 01:12:46*
%MOMM*%
%LPD*%
G01*
G04 APERTURE LIST*
%TA.AperFunction,ComponentPad*%
%ADD10O,1.600000X1.600000*%
%TD*%
%TA.AperFunction,ComponentPad*%
%ADD11C,1.600000*%
%TD*%
%TA.AperFunction,ComponentPad*%
%ADD12O,1.700000X1.700000*%
%TD*%
%TA.AperFunction,ComponentPad*%
%ADD13R,1.700000X1.700000*%
%TD*%
%TA.AperFunction,ComponentPad*%
%ADD14O,2.000000X1.600000*%
%TD*%
%TA.AperFunction,ComponentPad*%
%ADD15R,2.000000X2.000000*%
%TD*%
%TA.AperFunction,Conductor*%
%ADD16C,1.000000*%
%TD*%
%TA.AperFunction,Conductor*%
%ADD17C,0.250000*%
%TD*%
%TA.AperFunction,Conductor*%
%ADD18C,0.100000*%
%TD*%
G04 APERTURE END LIST*
D10*
%TO.P,R1,2*%
%TO.N,Net-(R1-Pad2)*%
X154940000Y-76200000D03*
D11*
%TO.P,R1,1*%
%TO.N,TO_DI*%
X144780000Y-76200000D03*
%TD*%
%TO.P,C1,2*%
%TO.N,GND*%
X132080000Y-104220000D03*
%TO.P,C1,1*%
%TO.N,+5V*%
X132080000Y-109220000D03*
%TD*%
D12*
%TO.P,J_WS2812B_1,3*%
%TO.N,GND*%
X129540000Y-81280000D03*
%TO.P,J_WS2812B_1,2*%
%TO.N,+5V*%
X129540000Y-78740000D03*
D13*
%TO.P,J_WS2812B_1,1*%
%TO.N,TO_DI*%
X129540000Y-76200000D03*
%TD*%
D12*
%TO.P,J_OLED_1,4*%
%TO.N,GND*%
X162560000Y-96520000D03*
%TO.P,J_OLED_1,3*%
%TO.N,+3V3*%
X162560000Y-93980000D03*
%TO.P,J_OLED_1,2*%
%TO.N,SCL*%
X162560000Y-91440000D03*
D13*
%TO.P,J_OLED_1,1*%
%TO.N,SDA*%
X162560000Y-88900000D03*
%TD*%
D12*
%TO.P,J_DHT22,3*%
%TO.N,GND*%
X129540000Y-91440000D03*
%TO.P,J_DHT22,2*%
%TO.N,DHT*%
X129540000Y-88900000D03*
D13*
%TO.P,J_DHT22,1*%
%TO.N,+3V3*%
X129540000Y-86360000D03*
%TD*%
D12*
%TO.P,J1,2*%
%TO.N,Net-(J1-Pad2)*%
X139700000Y-78740000D03*
D13*
%TO.P,J1,1*%
%TO.N,Net-(J1-Pad1)*%
X139700000Y-76200000D03*
%TD*%
D12*
%TO.P,J_CCS811,5*%
%TO.N,GND*%
X162560000Y-83820000D03*
%TO.P,J_CCS811,4*%
%TO.N,SDA*%
X162560000Y-81280000D03*
%TO.P,J_CCS811,3*%
%TO.N,SCL*%
X162560000Y-78740000D03*
%TO.P,J_CCS811,2*%
%TO.N,GND*%
X162560000Y-76200000D03*
D13*
%TO.P,J_CCS811,1*%
%TO.N,+3V3*%
X162560000Y-73660000D03*
%TD*%
D14*
%TO.P,U1,16*%
%TO.N,N/C*%
X157480000Y-73660000D03*
%TO.P,U1,15*%
%TO.N,Net-(R1-Pad2)*%
X157480000Y-76200000D03*
%TO.P,U1,14*%
%TO.N,SCL*%
X157480000Y-78740000D03*
%TO.P,U1,13*%
%TO.N,SDA*%
X157480000Y-81280000D03*
%TO.P,U1,12*%
%TO.N,N/C*%
X157480000Y-83820000D03*
%TO.P,U1,11*%
%TO.N,DHT*%
X157480000Y-86360000D03*
%TO.P,U1,10*%
%TO.N,GND*%
X157480000Y-88900000D03*
%TO.P,U1,9*%
%TO.N,+5V*%
X157480000Y-91440000D03*
%TO.P,U1,8*%
%TO.N,+3V3*%
X134620000Y-91440000D03*
%TO.P,U1,7*%
%TO.N,N/C*%
X134620000Y-88900000D03*
%TO.P,U1,6*%
X134620000Y-86360000D03*
%TO.P,U1,5*%
X134620000Y-83820000D03*
%TO.P,U1,4*%
X134620000Y-81280000D03*
%TO.P,U1,3*%
%TO.N,Net-(J1-Pad2)*%
X134620000Y-78740000D03*
D15*
%TO.P,U1,1*%
%TO.N,Net-(J1-Pad1)*%
X134620000Y-73660000D03*
D14*
%TO.P,U1,2*%
%TO.N,N/C*%
X134620000Y-76200000D03*
%TD*%
D16*
%TO.N,GND*%
X164110001Y-94969999D02*
X162560000Y-96520000D01*
X164110001Y-77750001D02*
X164110001Y-94969999D01*
X162560000Y-76200000D02*
X164110001Y-77750001D01*
X164110001Y-82269999D02*
X164110001Y-77750001D01*
X162560000Y-83820000D02*
X164110001Y-82269999D01*
%TO.N,+3V3*%
X127989999Y-87910001D02*
X129540000Y-86360000D01*
X128795999Y-92990001D02*
X127989999Y-92184001D01*
X133069999Y-92990001D02*
X128795999Y-92990001D01*
X127989999Y-92184001D02*
X127989999Y-87910001D01*
X134620000Y-91440000D02*
X133069999Y-92990001D01*
X137160000Y-93980000D02*
X134620000Y-91440000D01*
X162560000Y-93980000D02*
X137160000Y-93980000D01*
%TD*%
D17*
%TO.N,GND*%
X133243186Y-74660000D02*
X133250426Y-74733513D01*
X133271869Y-74804200D01*
X133306691Y-74869347D01*
X133353552Y-74926448D01*
X133410653Y-74973309D01*
X133475800Y-75008131D01*
X133546487Y-75029574D01*
X133620000Y-75036814D01*
X134242333Y-75036814D01*
X134189660Y-75042002D01*
X133968171Y-75109189D01*
X133764047Y-75218296D01*
X133585130Y-75365130D01*
X133438296Y-75544047D01*
X133329189Y-75748171D01*
X133262002Y-75969660D01*
X133239315Y-76200000D01*
X133262002Y-76430340D01*
X133329189Y-76651829D01*
X133438296Y-76855953D01*
X133585130Y-77034870D01*
X133764047Y-77181704D01*
X133968171Y-77290811D01*
X134189660Y-77357998D01*
X134362280Y-77375000D01*
X134877720Y-77375000D01*
X135050340Y-77357998D01*
X135271829Y-77290811D01*
X135475953Y-77181704D01*
X135654870Y-77034870D01*
X135801704Y-76855953D01*
X135910811Y-76651829D01*
X135977998Y-76430340D01*
X136000685Y-76200000D01*
X135977998Y-75969660D01*
X135910811Y-75748171D01*
X135801704Y-75544047D01*
X135654870Y-75365130D01*
X135636435Y-75350000D01*
X138473186Y-75350000D01*
X138473186Y-77050000D01*
X138480426Y-77123513D01*
X138501869Y-77194200D01*
X138536691Y-77259347D01*
X138583552Y-77316448D01*
X138640653Y-77363309D01*
X138705800Y-77398131D01*
X138776487Y-77419574D01*
X138850000Y-77426814D01*
X140550000Y-77426814D01*
X140623513Y-77419574D01*
X140694200Y-77398131D01*
X140759347Y-77363309D01*
X140816448Y-77316448D01*
X140863309Y-77259347D01*
X140898131Y-77194200D01*
X140919574Y-77123513D01*
X140926814Y-77050000D01*
X140926814Y-76084273D01*
X143605000Y-76084273D01*
X143605000Y-76315727D01*
X143650155Y-76542735D01*
X143738729Y-76756571D01*
X143867318Y-76949019D01*
X144030981Y-77112682D01*
X144223429Y-77241271D01*
X144437265Y-77329845D01*
X144664273Y-77375000D01*
X144895727Y-77375000D01*
X145122735Y-77329845D01*
X145336571Y-77241271D01*
X145529019Y-77112682D01*
X145692682Y-76949019D01*
X145821271Y-76756571D01*
X145909845Y-76542735D01*
X145955000Y-76315727D01*
X145955000Y-76084273D01*
X153765000Y-76084273D01*
X153765000Y-76315727D01*
X153810155Y-76542735D01*
X153898729Y-76756571D01*
X154027318Y-76949019D01*
X154190981Y-77112682D01*
X154383429Y-77241271D01*
X154597265Y-77329845D01*
X154824273Y-77375000D01*
X155055727Y-77375000D01*
X155282735Y-77329845D01*
X155496571Y-77241271D01*
X155689019Y-77112682D01*
X155852682Y-76949019D01*
X155981271Y-76756571D01*
X156069845Y-76542735D01*
X156112133Y-76330140D01*
X156122002Y-76430340D01*
X156189189Y-76651829D01*
X156298296Y-76855953D01*
X156445130Y-77034870D01*
X156624047Y-77181704D01*
X156828171Y-77290811D01*
X157049660Y-77357998D01*
X157222280Y-77375000D01*
X157737720Y-77375000D01*
X157910340Y-77357998D01*
X158131829Y-77290811D01*
X158335953Y-77181704D01*
X158514870Y-77034870D01*
X158661704Y-76855953D01*
X158770811Y-76651829D01*
X158799114Y-76558525D01*
X161120990Y-76558525D01*
X161164317Y-76701370D01*
X161288947Y-76964021D01*
X161462423Y-77197311D01*
X161678078Y-77392275D01*
X161927625Y-77541420D01*
X162102279Y-77603664D01*
X161979745Y-77654419D01*
X161779108Y-77788481D01*
X161608481Y-77959108D01*
X161474419Y-78159745D01*
X161382076Y-78382681D01*
X161335000Y-78619348D01*
X161335000Y-78860652D01*
X161382076Y-79097319D01*
X161474419Y-79320255D01*
X161608481Y-79520892D01*
X161779108Y-79691519D01*
X161979745Y-79825581D01*
X162202681Y-79917924D01*
X162439348Y-79965000D01*
X162680652Y-79965000D01*
X162917319Y-79917924D01*
X163140255Y-79825581D01*
X163340892Y-79691519D01*
X163511519Y-79520892D01*
X163645581Y-79320255D01*
X163737924Y-79097319D01*
X163785000Y-78860652D01*
X163785000Y-78619348D01*
X163737924Y-78382681D01*
X163645581Y-78159745D01*
X163511519Y-77959108D01*
X163340892Y-77788481D01*
X163140255Y-77654419D01*
X163017721Y-77603664D01*
X163192375Y-77541420D01*
X163441922Y-77392275D01*
X163657577Y-77197311D01*
X163831053Y-76964021D01*
X163955683Y-76701370D01*
X163999010Y-76558525D01*
X163878454Y-76329000D01*
X162689000Y-76329000D01*
X162689000Y-76349000D01*
X162431000Y-76349000D01*
X162431000Y-76329000D01*
X161241546Y-76329000D01*
X161120990Y-76558525D01*
X158799114Y-76558525D01*
X158837998Y-76430340D01*
X158860685Y-76200000D01*
X158837998Y-75969660D01*
X158770811Y-75748171D01*
X158661704Y-75544047D01*
X158514870Y-75365130D01*
X158335953Y-75218296D01*
X158131829Y-75109189D01*
X157910340Y-75042002D01*
X157737720Y-75025000D01*
X157222280Y-75025000D01*
X157049660Y-75042002D01*
X156828171Y-75109189D01*
X156624047Y-75218296D01*
X156445130Y-75365130D01*
X156298296Y-75544047D01*
X156189189Y-75748171D01*
X156122002Y-75969660D01*
X156112133Y-76069860D01*
X156069845Y-75857265D01*
X155981271Y-75643429D01*
X155852682Y-75450981D01*
X155689019Y-75287318D01*
X155496571Y-75158729D01*
X155282735Y-75070155D01*
X155055727Y-75025000D01*
X154824273Y-75025000D01*
X154597265Y-75070155D01*
X154383429Y-75158729D01*
X154190981Y-75287318D01*
X154027318Y-75450981D01*
X153898729Y-75643429D01*
X153810155Y-75857265D01*
X153765000Y-76084273D01*
X145955000Y-76084273D01*
X145909845Y-75857265D01*
X145821271Y-75643429D01*
X145692682Y-75450981D01*
X145529019Y-75287318D01*
X145336571Y-75158729D01*
X145122735Y-75070155D01*
X144895727Y-75025000D01*
X144664273Y-75025000D01*
X144437265Y-75070155D01*
X144223429Y-75158729D01*
X144030981Y-75287318D01*
X143867318Y-75450981D01*
X143738729Y-75643429D01*
X143650155Y-75857265D01*
X143605000Y-76084273D01*
X140926814Y-76084273D01*
X140926814Y-75350000D01*
X140919574Y-75276487D01*
X140898131Y-75205800D01*
X140863309Y-75140653D01*
X140816448Y-75083552D01*
X140759347Y-75036691D01*
X140694200Y-75001869D01*
X140623513Y-74980426D01*
X140550000Y-74973186D01*
X138850000Y-74973186D01*
X138776487Y-74980426D01*
X138705800Y-75001869D01*
X138640653Y-75036691D01*
X138583552Y-75083552D01*
X138536691Y-75140653D01*
X138501869Y-75205800D01*
X138480426Y-75276487D01*
X138473186Y-75350000D01*
X135636435Y-75350000D01*
X135475953Y-75218296D01*
X135271829Y-75109189D01*
X135050340Y-75042002D01*
X134997667Y-75036814D01*
X135620000Y-75036814D01*
X135693513Y-75029574D01*
X135764200Y-75008131D01*
X135829347Y-74973309D01*
X135886448Y-74926448D01*
X135933309Y-74869347D01*
X135968131Y-74804200D01*
X135989574Y-74733513D01*
X135996814Y-74660000D01*
X135996814Y-73785000D01*
X156111627Y-73785000D01*
X156122002Y-73890340D01*
X156189189Y-74111829D01*
X156298296Y-74315953D01*
X156445130Y-74494870D01*
X156624047Y-74641704D01*
X156828171Y-74750811D01*
X157049660Y-74817998D01*
X157222280Y-74835000D01*
X157737720Y-74835000D01*
X157910340Y-74817998D01*
X158131829Y-74750811D01*
X158335953Y-74641704D01*
X158514870Y-74494870D01*
X158661704Y-74315953D01*
X158770811Y-74111829D01*
X158837998Y-73890340D01*
X158848373Y-73785000D01*
X161333186Y-73785000D01*
X161333186Y-74510000D01*
X161340426Y-74583513D01*
X161361869Y-74654200D01*
X161396691Y-74719347D01*
X161443552Y-74776448D01*
X161500653Y-74823309D01*
X161565800Y-74858131D01*
X161636487Y-74879574D01*
X161710000Y-74886814D01*
X161880384Y-74886814D01*
X161678078Y-75007725D01*
X161462423Y-75202689D01*
X161288947Y-75435979D01*
X161164317Y-75698630D01*
X161120990Y-75841475D01*
X161241546Y-76071000D01*
X162431000Y-76071000D01*
X162431000Y-76051000D01*
X162689000Y-76051000D01*
X162689000Y-76071000D01*
X163878454Y-76071000D01*
X163999010Y-75841475D01*
X163955683Y-75698630D01*
X163831053Y-75435979D01*
X163657577Y-75202689D01*
X163441922Y-75007725D01*
X163239616Y-74886814D01*
X163410000Y-74886814D01*
X163483513Y-74879574D01*
X163554200Y-74858131D01*
X163619347Y-74823309D01*
X163676448Y-74776448D01*
X163723309Y-74719347D01*
X163758131Y-74654200D01*
X163779574Y-74583513D01*
X163786814Y-74510000D01*
X163786814Y-73785000D01*
X174600001Y-73785000D01*
X174600000Y-105983585D01*
X174523473Y-106914404D01*
X174299958Y-107804253D01*
X173934110Y-108645647D01*
X173435751Y-109415992D01*
X172818274Y-110094589D01*
X172098241Y-110663237D01*
X171295017Y-111106641D01*
X170430147Y-111412907D01*
X169519971Y-111575034D01*
X168990573Y-111600000D01*
X125016415Y-111600000D01*
X124085596Y-111523473D01*
X123195747Y-111299958D01*
X122354353Y-110934110D01*
X121584008Y-110435751D01*
X120905411Y-109818274D01*
X120341527Y-109104273D01*
X130905000Y-109104273D01*
X130905000Y-109335727D01*
X130950155Y-109562735D01*
X131038729Y-109776571D01*
X131167318Y-109969019D01*
X131330981Y-110132682D01*
X131523429Y-110261271D01*
X131737265Y-110349845D01*
X131964273Y-110395000D01*
X132195727Y-110395000D01*
X132422735Y-110349845D01*
X132636571Y-110261271D01*
X132829019Y-110132682D01*
X132992682Y-109969019D01*
X133121271Y-109776571D01*
X133209845Y-109562735D01*
X133255000Y-109335727D01*
X133255000Y-109104273D01*
X133209845Y-108877265D01*
X133121271Y-108663429D01*
X132992682Y-108470981D01*
X132829019Y-108307318D01*
X132636571Y-108178729D01*
X132422735Y-108090155D01*
X132195727Y-108045000D01*
X131964273Y-108045000D01*
X131737265Y-108090155D01*
X131523429Y-108178729D01*
X131330981Y-108307318D01*
X131167318Y-108470981D01*
X131038729Y-108663429D01*
X130950155Y-108877265D01*
X130905000Y-109104273D01*
X120341527Y-109104273D01*
X120336763Y-109098241D01*
X119893359Y-108295017D01*
X119587093Y-107430147D01*
X119424966Y-106519971D01*
X119400000Y-105990573D01*
X119400000Y-105212902D01*
X131269531Y-105212902D01*
X131341394Y-105456071D01*
X131596732Y-105576415D01*
X131870641Y-105644632D01*
X132152596Y-105658102D01*
X132431761Y-105616307D01*
X132697408Y-105520852D01*
X132818606Y-105456071D01*
X132890469Y-105212902D01*
X132080000Y-104402434D01*
X131269531Y-105212902D01*
X119400000Y-105212902D01*
X119400000Y-104292596D01*
X130641898Y-104292596D01*
X130683693Y-104571761D01*
X130779148Y-104837408D01*
X130843929Y-104958606D01*
X131087098Y-105030469D01*
X131897566Y-104220000D01*
X132262434Y-104220000D01*
X133072902Y-105030469D01*
X133316071Y-104958606D01*
X133436415Y-104703268D01*
X133504632Y-104429359D01*
X133518102Y-104147404D01*
X133476307Y-103868239D01*
X133380852Y-103602592D01*
X133316071Y-103481394D01*
X133072902Y-103409531D01*
X132262434Y-104220000D01*
X131897566Y-104220000D01*
X131087098Y-103409531D01*
X130843929Y-103481394D01*
X130723585Y-103736732D01*
X130655368Y-104010641D01*
X130641898Y-104292596D01*
X119400000Y-104292596D01*
X119400000Y-103227098D01*
X131269531Y-103227098D01*
X132080000Y-104037566D01*
X132890469Y-103227098D01*
X132818606Y-102983929D01*
X132563268Y-102863585D01*
X132289359Y-102795368D01*
X132007404Y-102781898D01*
X131728239Y-102823693D01*
X131462592Y-102919148D01*
X131341394Y-102983929D01*
X131269531Y-103227098D01*
X119400000Y-103227098D01*
X119400000Y-97830102D01*
X123275000Y-97830102D01*
X123275000Y-98169898D01*
X123341290Y-98503164D01*
X123471324Y-98817094D01*
X123660105Y-99099624D01*
X123900376Y-99339895D01*
X124182906Y-99528676D01*
X124496836Y-99658710D01*
X124830102Y-99725000D01*
X125169898Y-99725000D01*
X125503164Y-99658710D01*
X125817094Y-99528676D01*
X126099624Y-99339895D01*
X126339895Y-99099624D01*
X126528676Y-98817094D01*
X126658710Y-98503164D01*
X126725000Y-98169898D01*
X126725000Y-97830102D01*
X126658710Y-97496836D01*
X126528676Y-97182906D01*
X126339895Y-96900376D01*
X126318044Y-96878525D01*
X161120990Y-96878525D01*
X161164317Y-97021370D01*
X161288947Y-97284021D01*
X161462423Y-97517311D01*
X161678078Y-97712275D01*
X161927625Y-97861420D01*
X162201474Y-97959015D01*
X162431000Y-97839134D01*
X162431000Y-96649000D01*
X162689000Y-96649000D01*
X162689000Y-97839134D01*
X162918526Y-97959015D01*
X163192375Y-97861420D01*
X163244775Y-97830102D01*
X167275000Y-97830102D01*
X167275000Y-98169898D01*
X167341290Y-98503164D01*
X167471324Y-98817094D01*
X167660105Y-99099624D01*
X167900376Y-99339895D01*
X168182906Y-99528676D01*
X168496836Y-99658710D01*
X168830102Y-99725000D01*
X169169898Y-99725000D01*
X169503164Y-99658710D01*
X169817094Y-99528676D01*
X170099624Y-99339895D01*
X170339895Y-99099624D01*
X170528676Y-98817094D01*
X170658710Y-98503164D01*
X170725000Y-98169898D01*
X170725000Y-97830102D01*
X170658710Y-97496836D01*
X170528676Y-97182906D01*
X170339895Y-96900376D01*
X170099624Y-96660105D01*
X169817094Y-96471324D01*
X169503164Y-96341290D01*
X169169898Y-96275000D01*
X168830102Y-96275000D01*
X168496836Y-96341290D01*
X168182906Y-96471324D01*
X167900376Y-96660105D01*
X167660105Y-96900376D01*
X167471324Y-97182906D01*
X167341290Y-97496836D01*
X167275000Y-97830102D01*
X163244775Y-97830102D01*
X163441922Y-97712275D01*
X163657577Y-97517311D01*
X163831053Y-97284021D01*
X163955683Y-97021370D01*
X163999010Y-96878525D01*
X163878454Y-96649000D01*
X162689000Y-96649000D01*
X162431000Y-96649000D01*
X161241546Y-96649000D01*
X161120990Y-96878525D01*
X126318044Y-96878525D01*
X126099624Y-96660105D01*
X125817094Y-96471324D01*
X125503164Y-96341290D01*
X125169898Y-96275000D01*
X124830102Y-96275000D01*
X124496836Y-96341290D01*
X124182906Y-96471324D01*
X123900376Y-96660105D01*
X123660105Y-96900376D01*
X123471324Y-97182906D01*
X123341290Y-97496836D01*
X123275000Y-97830102D01*
X119400000Y-97830102D01*
X119400000Y-87910001D01*
X127110766Y-87910001D01*
X127115000Y-87952990D01*
X127114999Y-92141022D01*
X127110766Y-92184001D01*
X127114999Y-92226979D01*
X127127660Y-92355530D01*
X127177694Y-92520468D01*
X127258943Y-92672476D01*
X127368287Y-92805713D01*
X127401679Y-92833117D01*
X128146887Y-93578326D01*
X128174287Y-93611713D01*
X128307523Y-93721057D01*
X128459531Y-93802306D01*
X128624468Y-93852340D01*
X128795998Y-93869234D01*
X128838977Y-93865001D01*
X133027020Y-93865001D01*
X133069999Y-93869234D01*
X133112978Y-93865001D01*
X133241529Y-93852340D01*
X133406467Y-93802306D01*
X133558475Y-93721057D01*
X133691711Y-93611713D01*
X133719116Y-93578320D01*
X134620000Y-92677436D01*
X136510888Y-94568325D01*
X136538288Y-94601712D01*
X136671524Y-94711056D01*
X136823532Y-94792305D01*
X136950080Y-94830694D01*
X136988469Y-94842339D01*
X137159999Y-94859233D01*
X137202978Y-94855000D01*
X161702589Y-94855000D01*
X161779108Y-94931519D01*
X161979745Y-95065581D01*
X162102279Y-95116336D01*
X161927625Y-95178580D01*
X161678078Y-95327725D01*
X161462423Y-95522689D01*
X161288947Y-95755979D01*
X161164317Y-96018630D01*
X161120990Y-96161475D01*
X161241546Y-96391000D01*
X162431000Y-96391000D01*
X162431000Y-96371000D01*
X162689000Y-96371000D01*
X162689000Y-96391000D01*
X163878454Y-96391000D01*
X163999010Y-96161475D01*
X163955683Y-96018630D01*
X163831053Y-95755979D01*
X163657577Y-95522689D01*
X163441922Y-95327725D01*
X163192375Y-95178580D01*
X163017721Y-95116336D01*
X163140255Y-95065581D01*
X163340892Y-94931519D01*
X163511519Y-94760892D01*
X163645581Y-94560255D01*
X163737924Y-94337319D01*
X163785000Y-94100652D01*
X163785000Y-93859348D01*
X163737924Y-93622681D01*
X163645581Y-93399745D01*
X163511519Y-93199108D01*
X163340892Y-93028481D01*
X163140255Y-92894419D01*
X162917319Y-92802076D01*
X162680652Y-92755000D01*
X162439348Y-92755000D01*
X162202681Y-92802076D01*
X161979745Y-92894419D01*
X161779108Y-93028481D01*
X161702589Y-93105000D01*
X137522437Y-93105000D01*
X135987841Y-91570405D01*
X136000685Y-91440000D01*
X135977998Y-91209660D01*
X135910811Y-90988171D01*
X135801704Y-90784047D01*
X135654870Y-90605130D01*
X135475953Y-90458296D01*
X135271829Y-90349189D01*
X135050340Y-90282002D01*
X134877720Y-90265000D01*
X134362280Y-90265000D01*
X134189660Y-90282002D01*
X133968171Y-90349189D01*
X133764047Y-90458296D01*
X133585130Y-90605130D01*
X133438296Y-90784047D01*
X133329189Y-90988171D01*
X133262002Y-91209660D01*
X133239315Y-91440000D01*
X133252159Y-91570405D01*
X132707563Y-92115001D01*
X130853294Y-92115001D01*
X130935683Y-91941370D01*
X130979010Y-91798525D01*
X130858454Y-91569000D01*
X129669000Y-91569000D01*
X129669000Y-91589000D01*
X129411000Y-91589000D01*
X129411000Y-91569000D01*
X129391000Y-91569000D01*
X129391000Y-91311000D01*
X129411000Y-91311000D01*
X129411000Y-91291000D01*
X129669000Y-91291000D01*
X129669000Y-91311000D01*
X130858454Y-91311000D01*
X130979010Y-91081475D01*
X130935683Y-90938630D01*
X130811053Y-90675979D01*
X130637577Y-90442689D01*
X130421922Y-90247725D01*
X130172375Y-90098580D01*
X129997721Y-90036336D01*
X130120255Y-89985581D01*
X130320892Y-89851519D01*
X130491519Y-89680892D01*
X130625581Y-89480255D01*
X130717924Y-89257319D01*
X130765000Y-89020652D01*
X130765000Y-88900000D01*
X133239315Y-88900000D01*
X133262002Y-89130340D01*
X133329189Y-89351829D01*
X133438296Y-89555953D01*
X133585130Y-89734870D01*
X133764047Y-89881704D01*
X133968171Y-89990811D01*
X134189660Y-90057998D01*
X134362280Y-90075000D01*
X134877720Y-90075000D01*
X135050340Y-90057998D01*
X135271829Y-89990811D01*
X135475953Y-89881704D01*
X135654870Y-89734870D01*
X135801704Y-89555953D01*
X135910811Y-89351829D01*
X135941496Y-89250672D01*
X155890569Y-89250672D01*
X155900068Y-89304309D01*
X156005460Y-89565752D01*
X156159832Y-89801610D01*
X156357251Y-90002820D01*
X156590131Y-90161649D01*
X156849522Y-90271994D01*
X156987600Y-90300827D01*
X156828171Y-90349189D01*
X156624047Y-90458296D01*
X156445130Y-90605130D01*
X156298296Y-90784047D01*
X156189189Y-90988171D01*
X156122002Y-91209660D01*
X156099315Y-91440000D01*
X156122002Y-91670340D01*
X156189189Y-91891829D01*
X156298296Y-92095953D01*
X156445130Y-92274870D01*
X156624047Y-92421704D01*
X156828171Y-92530811D01*
X157049660Y-92597998D01*
X157222280Y-92615000D01*
X157737720Y-92615000D01*
X157910340Y-92597998D01*
X158131829Y-92530811D01*
X158335953Y-92421704D01*
X158514870Y-92274870D01*
X158661704Y-92095953D01*
X158770811Y-91891829D01*
X158837998Y-91670340D01*
X158860685Y-91440000D01*
X158848802Y-91319348D01*
X161335000Y-91319348D01*
X161335000Y-91560652D01*
X161382076Y-91797319D01*
X161474419Y-92020255D01*
X161608481Y-92220892D01*
X161779108Y-92391519D01*
X161979745Y-92525581D01*
X162202681Y-92617924D01*
X162439348Y-92665000D01*
X162680652Y-92665000D01*
X162917319Y-92617924D01*
X163140255Y-92525581D01*
X163340892Y-92391519D01*
X163511519Y-92220892D01*
X163645581Y-92020255D01*
X163737924Y-91797319D01*
X163785000Y-91560652D01*
X163785000Y-91319348D01*
X163737924Y-91082681D01*
X163645581Y-90859745D01*
X163511519Y-90659108D01*
X163340892Y-90488481D01*
X163140255Y-90354419D01*
X162917319Y-90262076D01*
X162680652Y-90215000D01*
X162439348Y-90215000D01*
X162202681Y-90262076D01*
X161979745Y-90354419D01*
X161779108Y-90488481D01*
X161608481Y-90659108D01*
X161474419Y-90859745D01*
X161382076Y-91082681D01*
X161335000Y-91319348D01*
X158848802Y-91319348D01*
X158837998Y-91209660D01*
X158770811Y-90988171D01*
X158661704Y-90784047D01*
X158514870Y-90605130D01*
X158335953Y-90458296D01*
X158131829Y-90349189D01*
X157972400Y-90300827D01*
X158110478Y-90271994D01*
X158369869Y-90161649D01*
X158602749Y-90002820D01*
X158800168Y-89801610D01*
X158954540Y-89565752D01*
X159059932Y-89304309D01*
X159069431Y-89250672D01*
X158948206Y-89029000D01*
X157609000Y-89029000D01*
X157609000Y-89049000D01*
X157351000Y-89049000D01*
X157351000Y-89029000D01*
X156011794Y-89029000D01*
X155890569Y-89250672D01*
X135941496Y-89250672D01*
X135977998Y-89130340D01*
X136000685Y-88900000D01*
X135977998Y-88669660D01*
X135941497Y-88549328D01*
X155890569Y-88549328D01*
X156011794Y-88771000D01*
X157351000Y-88771000D01*
X157351000Y-88751000D01*
X157609000Y-88751000D01*
X157609000Y-88771000D01*
X158948206Y-88771000D01*
X159069431Y-88549328D01*
X159059932Y-88495691D01*
X158954540Y-88234248D01*
X158833948Y-88050000D01*
X161333186Y-88050000D01*
X161333186Y-89750000D01*
X161340426Y-89823513D01*
X161361869Y-89894200D01*
X161396691Y-89959347D01*
X161443552Y-90016448D01*
X161500653Y-90063309D01*
X161565800Y-90098131D01*
X161636487Y-90119574D01*
X161710000Y-90126814D01*
X163410000Y-90126814D01*
X163483513Y-90119574D01*
X163554200Y-90098131D01*
X163619347Y-90063309D01*
X163676448Y-90016448D01*
X163723309Y-89959347D01*
X163758131Y-89894200D01*
X163779574Y-89823513D01*
X163786814Y-89750000D01*
X163786814Y-88050000D01*
X163779574Y-87976487D01*
X163758131Y-87905800D01*
X163723309Y-87840653D01*
X163676448Y-87783552D01*
X163619347Y-87736691D01*
X163554200Y-87701869D01*
X163483513Y-87680426D01*
X163410000Y-87673186D01*
X161710000Y-87673186D01*
X161636487Y-87680426D01*
X161565800Y-87701869D01*
X161500653Y-87736691D01*
X161443552Y-87783552D01*
X161396691Y-87840653D01*
X161361869Y-87905800D01*
X161340426Y-87976487D01*
X161333186Y-88050000D01*
X158833948Y-88050000D01*
X158800168Y-87998390D01*
X158602749Y-87797180D01*
X158369869Y-87638351D01*
X158110478Y-87528006D01*
X157972400Y-87499173D01*
X158131829Y-87450811D01*
X158335953Y-87341704D01*
X158514870Y-87194870D01*
X158661704Y-87015953D01*
X158770811Y-86811829D01*
X158837998Y-86590340D01*
X158860685Y-86360000D01*
X158837998Y-86129660D01*
X158770811Y-85908171D01*
X158661704Y-85704047D01*
X158514870Y-85525130D01*
X158335953Y-85378296D01*
X158131829Y-85269189D01*
X157910340Y-85202002D01*
X157737720Y-85185000D01*
X157222280Y-85185000D01*
X157049660Y-85202002D01*
X156828171Y-85269189D01*
X156624047Y-85378296D01*
X156445130Y-85525130D01*
X156298296Y-85704047D01*
X156189189Y-85908171D01*
X156122002Y-86129660D01*
X156099315Y-86360000D01*
X156122002Y-86590340D01*
X156189189Y-86811829D01*
X156298296Y-87015953D01*
X156445130Y-87194870D01*
X156624047Y-87341704D01*
X156828171Y-87450811D01*
X156987600Y-87499173D01*
X156849522Y-87528006D01*
X156590131Y-87638351D01*
X156357251Y-87797180D01*
X156159832Y-87998390D01*
X156005460Y-88234248D01*
X155900068Y-88495691D01*
X155890569Y-88549328D01*
X135941497Y-88549328D01*
X135910811Y-88448171D01*
X135801704Y-88244047D01*
X135654870Y-88065130D01*
X135475953Y-87918296D01*
X135271829Y-87809189D01*
X135050340Y-87742002D01*
X134877720Y-87725000D01*
X134362280Y-87725000D01*
X134189660Y-87742002D01*
X133968171Y-87809189D01*
X133764047Y-87918296D01*
X133585130Y-88065130D01*
X133438296Y-88244047D01*
X133329189Y-88448171D01*
X133262002Y-88669660D01*
X133239315Y-88900000D01*
X130765000Y-88900000D01*
X130765000Y-88779348D01*
X130717924Y-88542681D01*
X130625581Y-88319745D01*
X130491519Y-88119108D01*
X130320892Y-87948481D01*
X130120255Y-87814419D01*
X129897319Y-87722076D01*
X129660652Y-87675000D01*
X129462436Y-87675000D01*
X129550622Y-87586814D01*
X130390000Y-87586814D01*
X130463513Y-87579574D01*
X130534200Y-87558131D01*
X130599347Y-87523309D01*
X130656448Y-87476448D01*
X130703309Y-87419347D01*
X130738131Y-87354200D01*
X130759574Y-87283513D01*
X130766814Y-87210000D01*
X130766814Y-86360000D01*
X133239315Y-86360000D01*
X133262002Y-86590340D01*
X133329189Y-86811829D01*
X133438296Y-87015953D01*
X133585130Y-87194870D01*
X133764047Y-87341704D01*
X133968171Y-87450811D01*
X134189660Y-87517998D01*
X134362280Y-87535000D01*
X134877720Y-87535000D01*
X135050340Y-87517998D01*
X135271829Y-87450811D01*
X135475953Y-87341704D01*
X135654870Y-87194870D01*
X135801704Y-87015953D01*
X135910811Y-86811829D01*
X135977998Y-86590340D01*
X136000685Y-86360000D01*
X135977998Y-86129660D01*
X135910811Y-85908171D01*
X135801704Y-85704047D01*
X135654870Y-85525130D01*
X135475953Y-85378296D01*
X135271829Y-85269189D01*
X135050340Y-85202002D01*
X134877720Y-85185000D01*
X134362280Y-85185000D01*
X134189660Y-85202002D01*
X133968171Y-85269189D01*
X133764047Y-85378296D01*
X133585130Y-85525130D01*
X133438296Y-85704047D01*
X133329189Y-85908171D01*
X133262002Y-86129660D01*
X133239315Y-86360000D01*
X130766814Y-86360000D01*
X130766814Y-85510000D01*
X130759574Y-85436487D01*
X130738131Y-85365800D01*
X130703309Y-85300653D01*
X130656448Y-85243552D01*
X130599347Y-85196691D01*
X130534200Y-85161869D01*
X130463513Y-85140426D01*
X130390000Y-85133186D01*
X128690000Y-85133186D01*
X128616487Y-85140426D01*
X128545800Y-85161869D01*
X128480653Y-85196691D01*
X128423552Y-85243552D01*
X128376691Y-85300653D01*
X128341869Y-85365800D01*
X128320426Y-85436487D01*
X128313186Y-85510000D01*
X128313186Y-86349378D01*
X127401675Y-87260889D01*
X127368288Y-87288289D01*
X127258944Y-87421525D01*
X127215515Y-87502775D01*
X127177694Y-87573534D01*
X127127660Y-87738472D01*
X127110766Y-87910001D01*
X119400000Y-87910001D01*
X119400000Y-83820000D01*
X133239315Y-83820000D01*
X133262002Y-84050340D01*
X133329189Y-84271829D01*
X133438296Y-84475953D01*
X133585130Y-84654870D01*
X133764047Y-84801704D01*
X133968171Y-84910811D01*
X134189660Y-84977998D01*
X134362280Y-84995000D01*
X134877720Y-84995000D01*
X135050340Y-84977998D01*
X135271829Y-84910811D01*
X135475953Y-84801704D01*
X135654870Y-84654870D01*
X135801704Y-84475953D01*
X135910811Y-84271829D01*
X135977998Y-84050340D01*
X136000685Y-83820000D01*
X156099315Y-83820000D01*
X156122002Y-84050340D01*
X156189189Y-84271829D01*
X156298296Y-84475953D01*
X156445130Y-84654870D01*
X156624047Y-84801704D01*
X156828171Y-84910811D01*
X157049660Y-84977998D01*
X157222280Y-84995000D01*
X157737720Y-84995000D01*
X157910340Y-84977998D01*
X158131829Y-84910811D01*
X158335953Y-84801704D01*
X158514870Y-84654870D01*
X158661704Y-84475953D01*
X158770811Y-84271829D01*
X158799114Y-84178525D01*
X161120990Y-84178525D01*
X161164317Y-84321370D01*
X161288947Y-84584021D01*
X161462423Y-84817311D01*
X161678078Y-85012275D01*
X161927625Y-85161420D01*
X162201474Y-85259015D01*
X162431000Y-85139134D01*
X162431000Y-83949000D01*
X162689000Y-83949000D01*
X162689000Y-85139134D01*
X162918526Y-85259015D01*
X163192375Y-85161420D01*
X163441922Y-85012275D01*
X163657577Y-84817311D01*
X163831053Y-84584021D01*
X163955683Y-84321370D01*
X163999010Y-84178525D01*
X163878454Y-83949000D01*
X162689000Y-83949000D01*
X162431000Y-83949000D01*
X161241546Y-83949000D01*
X161120990Y-84178525D01*
X158799114Y-84178525D01*
X158837998Y-84050340D01*
X158860685Y-83820000D01*
X158837998Y-83589660D01*
X158799115Y-83461475D01*
X161120990Y-83461475D01*
X161241546Y-83691000D01*
X162431000Y-83691000D01*
X162431000Y-83671000D01*
X162689000Y-83671000D01*
X162689000Y-83691000D01*
X163878454Y-83691000D01*
X163999010Y-83461475D01*
X163955683Y-83318630D01*
X163831053Y-83055979D01*
X163657577Y-82822689D01*
X163441922Y-82627725D01*
X163192375Y-82478580D01*
X163017721Y-82416336D01*
X163140255Y-82365581D01*
X163340892Y-82231519D01*
X163511519Y-82060892D01*
X163645581Y-81860255D01*
X163737924Y-81637319D01*
X163785000Y-81400652D01*
X163785000Y-81159348D01*
X163737924Y-80922681D01*
X163645581Y-80699745D01*
X163511519Y-80499108D01*
X163340892Y-80328481D01*
X163140255Y-80194419D01*
X162917319Y-80102076D01*
X162680652Y-80055000D01*
X162439348Y-80055000D01*
X162202681Y-80102076D01*
X161979745Y-80194419D01*
X161779108Y-80328481D01*
X161608481Y-80499108D01*
X161474419Y-80699745D01*
X161382076Y-80922681D01*
X161335000Y-81159348D01*
X161335000Y-81400652D01*
X161382076Y-81637319D01*
X161474419Y-81860255D01*
X161608481Y-82060892D01*
X161779108Y-82231519D01*
X161979745Y-82365581D01*
X162102279Y-82416336D01*
X161927625Y-82478580D01*
X161678078Y-82627725D01*
X161462423Y-82822689D01*
X161288947Y-83055979D01*
X161164317Y-83318630D01*
X161120990Y-83461475D01*
X158799115Y-83461475D01*
X158770811Y-83368171D01*
X158661704Y-83164047D01*
X158514870Y-82985130D01*
X158335953Y-82838296D01*
X158131829Y-82729189D01*
X157910340Y-82662002D01*
X157737720Y-82645000D01*
X157222280Y-82645000D01*
X157049660Y-82662002D01*
X156828171Y-82729189D01*
X156624047Y-82838296D01*
X156445130Y-82985130D01*
X156298296Y-83164047D01*
X156189189Y-83368171D01*
X156122002Y-83589660D01*
X156099315Y-83820000D01*
X136000685Y-83820000D01*
X135977998Y-83589660D01*
X135910811Y-83368171D01*
X135801704Y-83164047D01*
X135654870Y-82985130D01*
X135475953Y-82838296D01*
X135271829Y-82729189D01*
X135050340Y-82662002D01*
X134877720Y-82645000D01*
X134362280Y-82645000D01*
X134189660Y-82662002D01*
X133968171Y-82729189D01*
X133764047Y-82838296D01*
X133585130Y-82985130D01*
X133438296Y-83164047D01*
X133329189Y-83368171D01*
X133262002Y-83589660D01*
X133239315Y-83820000D01*
X119400000Y-83820000D01*
X119400000Y-81638525D01*
X128100990Y-81638525D01*
X128144317Y-81781370D01*
X128268947Y-82044021D01*
X128442423Y-82277311D01*
X128658078Y-82472275D01*
X128907625Y-82621420D01*
X129181474Y-82719015D01*
X129411000Y-82599134D01*
X129411000Y-81409000D01*
X129669000Y-81409000D01*
X129669000Y-82599134D01*
X129898526Y-82719015D01*
X130172375Y-82621420D01*
X130421922Y-82472275D01*
X130637577Y-82277311D01*
X130811053Y-82044021D01*
X130935683Y-81781370D01*
X130979010Y-81638525D01*
X130858454Y-81409000D01*
X129669000Y-81409000D01*
X129411000Y-81409000D01*
X128221546Y-81409000D01*
X128100990Y-81638525D01*
X119400000Y-81638525D01*
X119400000Y-81280000D01*
X133239315Y-81280000D01*
X133262002Y-81510340D01*
X133329189Y-81731829D01*
X133438296Y-81935953D01*
X133585130Y-82114870D01*
X133764047Y-82261704D01*
X133968171Y-82370811D01*
X134189660Y-82437998D01*
X134362280Y-82455000D01*
X134877720Y-82455000D01*
X135050340Y-82437998D01*
X135271829Y-82370811D01*
X135475953Y-82261704D01*
X135654870Y-82114870D01*
X135801704Y-81935953D01*
X135910811Y-81731829D01*
X135977998Y-81510340D01*
X136000685Y-81280000D01*
X156099315Y-81280000D01*
X156122002Y-81510340D01*
X156189189Y-81731829D01*
X156298296Y-81935953D01*
X156445130Y-82114870D01*
X156624047Y-82261704D01*
X156828171Y-82370811D01*
X157049660Y-82437998D01*
X157222280Y-82455000D01*
X157737720Y-82455000D01*
X157910340Y-82437998D01*
X158131829Y-82370811D01*
X158335953Y-82261704D01*
X158514870Y-82114870D01*
X158661704Y-81935953D01*
X158770811Y-81731829D01*
X158837998Y-81510340D01*
X158860685Y-81280000D01*
X158837998Y-81049660D01*
X158770811Y-80828171D01*
X158661704Y-80624047D01*
X158514870Y-80445130D01*
X158335953Y-80298296D01*
X158131829Y-80189189D01*
X157910340Y-80122002D01*
X157737720Y-80105000D01*
X157222280Y-80105000D01*
X157049660Y-80122002D01*
X156828171Y-80189189D01*
X156624047Y-80298296D01*
X156445130Y-80445130D01*
X156298296Y-80624047D01*
X156189189Y-80828171D01*
X156122002Y-81049660D01*
X156099315Y-81280000D01*
X136000685Y-81280000D01*
X135977998Y-81049660D01*
X135910811Y-80828171D01*
X135801704Y-80624047D01*
X135654870Y-80445130D01*
X135475953Y-80298296D01*
X135271829Y-80189189D01*
X135050340Y-80122002D01*
X134877720Y-80105000D01*
X134362280Y-80105000D01*
X134189660Y-80122002D01*
X133968171Y-80189189D01*
X133764047Y-80298296D01*
X133585130Y-80445130D01*
X133438296Y-80624047D01*
X133329189Y-80828171D01*
X133262002Y-81049660D01*
X133239315Y-81280000D01*
X119400000Y-81280000D01*
X119400000Y-80921475D01*
X128100990Y-80921475D01*
X128221546Y-81151000D01*
X129411000Y-81151000D01*
X129411000Y-81131000D01*
X129669000Y-81131000D01*
X129669000Y-81151000D01*
X130858454Y-81151000D01*
X130979010Y-80921475D01*
X130935683Y-80778630D01*
X130811053Y-80515979D01*
X130637577Y-80282689D01*
X130421922Y-80087725D01*
X130172375Y-79938580D01*
X129997721Y-79876336D01*
X130120255Y-79825581D01*
X130320892Y-79691519D01*
X130491519Y-79520892D01*
X130625581Y-79320255D01*
X130717924Y-79097319D01*
X130765000Y-78860652D01*
X130765000Y-78740000D01*
X133239315Y-78740000D01*
X133262002Y-78970340D01*
X133329189Y-79191829D01*
X133438296Y-79395953D01*
X133585130Y-79574870D01*
X133764047Y-79721704D01*
X133968171Y-79830811D01*
X134189660Y-79897998D01*
X134362280Y-79915000D01*
X134877720Y-79915000D01*
X135050340Y-79897998D01*
X135271829Y-79830811D01*
X135475953Y-79721704D01*
X135654870Y-79574870D01*
X135801704Y-79395953D01*
X135910811Y-79191829D01*
X135977998Y-78970340D01*
X136000685Y-78740000D01*
X135988802Y-78619348D01*
X138475000Y-78619348D01*
X138475000Y-78860652D01*
X138522076Y-79097319D01*
X138614419Y-79320255D01*
X138748481Y-79520892D01*
X138919108Y-79691519D01*
X139119745Y-79825581D01*
X139342681Y-79917924D01*
X139579348Y-79965000D01*
X139820652Y-79965000D01*
X140057319Y-79917924D01*
X140280255Y-79825581D01*
X140480892Y-79691519D01*
X140651519Y-79520892D01*
X140785581Y-79320255D01*
X140877924Y-79097319D01*
X140925000Y-78860652D01*
X140925000Y-78740000D01*
X156099315Y-78740000D01*
X156122002Y-78970340D01*
X156189189Y-79191829D01*
X156298296Y-79395953D01*
X156445130Y-79574870D01*
X156624047Y-79721704D01*
X156828171Y-79830811D01*
X157049660Y-79897998D01*
X157222280Y-79915000D01*
X157737720Y-79915000D01*
X157910340Y-79897998D01*
X158131829Y-79830811D01*
X158335953Y-79721704D01*
X158514870Y-79574870D01*
X158661704Y-79395953D01*
X158770811Y-79191829D01*
X158837998Y-78970340D01*
X158860685Y-78740000D01*
X158837998Y-78509660D01*
X158770811Y-78288171D01*
X158661704Y-78084047D01*
X158514870Y-77905130D01*
X158335953Y-77758296D01*
X158131829Y-77649189D01*
X157910340Y-77582002D01*
X157737720Y-77565000D01*
X157222280Y-77565000D01*
X157049660Y-77582002D01*
X156828171Y-77649189D01*
X156624047Y-77758296D01*
X156445130Y-77905130D01*
X156298296Y-78084047D01*
X156189189Y-78288171D01*
X156122002Y-78509660D01*
X156099315Y-78740000D01*
X140925000Y-78740000D01*
X140925000Y-78619348D01*
X140877924Y-78382681D01*
X140785581Y-78159745D01*
X140651519Y-77959108D01*
X140480892Y-77788481D01*
X140280255Y-77654419D01*
X140057319Y-77562076D01*
X139820652Y-77515000D01*
X139579348Y-77515000D01*
X139342681Y-77562076D01*
X139119745Y-77654419D01*
X138919108Y-77788481D01*
X138748481Y-77959108D01*
X138614419Y-78159745D01*
X138522076Y-78382681D01*
X138475000Y-78619348D01*
X135988802Y-78619348D01*
X135977998Y-78509660D01*
X135910811Y-78288171D01*
X135801704Y-78084047D01*
X135654870Y-77905130D01*
X135475953Y-77758296D01*
X135271829Y-77649189D01*
X135050340Y-77582002D01*
X134877720Y-77565000D01*
X134362280Y-77565000D01*
X134189660Y-77582002D01*
X133968171Y-77649189D01*
X133764047Y-77758296D01*
X133585130Y-77905130D01*
X133438296Y-78084047D01*
X133329189Y-78288171D01*
X133262002Y-78509660D01*
X133239315Y-78740000D01*
X130765000Y-78740000D01*
X130765000Y-78619348D01*
X130717924Y-78382681D01*
X130625581Y-78159745D01*
X130491519Y-77959108D01*
X130320892Y-77788481D01*
X130120255Y-77654419D01*
X129897319Y-77562076D01*
X129660652Y-77515000D01*
X129419348Y-77515000D01*
X129182681Y-77562076D01*
X128959745Y-77654419D01*
X128759108Y-77788481D01*
X128588481Y-77959108D01*
X128454419Y-78159745D01*
X128362076Y-78382681D01*
X128315000Y-78619348D01*
X128315000Y-78860652D01*
X128362076Y-79097319D01*
X128454419Y-79320255D01*
X128588481Y-79520892D01*
X128759108Y-79691519D01*
X128959745Y-79825581D01*
X129082279Y-79876336D01*
X128907625Y-79938580D01*
X128658078Y-80087725D01*
X128442423Y-80282689D01*
X128268947Y-80515979D01*
X128144317Y-80778630D01*
X128100990Y-80921475D01*
X119400000Y-80921475D01*
X119400000Y-75350000D01*
X128313186Y-75350000D01*
X128313186Y-77050000D01*
X128320426Y-77123513D01*
X128341869Y-77194200D01*
X128376691Y-77259347D01*
X128423552Y-77316448D01*
X128480653Y-77363309D01*
X128545800Y-77398131D01*
X128616487Y-77419574D01*
X128690000Y-77426814D01*
X130390000Y-77426814D01*
X130463513Y-77419574D01*
X130534200Y-77398131D01*
X130599347Y-77363309D01*
X130656448Y-77316448D01*
X130703309Y-77259347D01*
X130738131Y-77194200D01*
X130759574Y-77123513D01*
X130766814Y-77050000D01*
X130766814Y-75350000D01*
X130759574Y-75276487D01*
X130738131Y-75205800D01*
X130703309Y-75140653D01*
X130656448Y-75083552D01*
X130599347Y-75036691D01*
X130534200Y-75001869D01*
X130463513Y-74980426D01*
X130390000Y-74973186D01*
X128690000Y-74973186D01*
X128616487Y-74980426D01*
X128545800Y-75001869D01*
X128480653Y-75036691D01*
X128423552Y-75083552D01*
X128376691Y-75140653D01*
X128341869Y-75205800D01*
X128320426Y-75276487D01*
X128313186Y-75350000D01*
X119400000Y-75350000D01*
X119400000Y-73785000D01*
X133243186Y-73785000D01*
X133243186Y-74660000D01*
%TA.AperFunction,Conductor*%
D18*
G36*
X133243186Y-74660000D02*
G01*
X133250426Y-74733513D01*
X133271869Y-74804200D01*
X133306691Y-74869347D01*
X133353552Y-74926448D01*
X133410653Y-74973309D01*
X133475800Y-75008131D01*
X133546487Y-75029574D01*
X133620000Y-75036814D01*
X134242333Y-75036814D01*
X134189660Y-75042002D01*
X133968171Y-75109189D01*
X133764047Y-75218296D01*
X133585130Y-75365130D01*
X133438296Y-75544047D01*
X133329189Y-75748171D01*
X133262002Y-75969660D01*
X133239315Y-76200000D01*
X133262002Y-76430340D01*
X133329189Y-76651829D01*
X133438296Y-76855953D01*
X133585130Y-77034870D01*
X133764047Y-77181704D01*
X133968171Y-77290811D01*
X134189660Y-77357998D01*
X134362280Y-77375000D01*
X134877720Y-77375000D01*
X135050340Y-77357998D01*
X135271829Y-77290811D01*
X135475953Y-77181704D01*
X135654870Y-77034870D01*
X135801704Y-76855953D01*
X135910811Y-76651829D01*
X135977998Y-76430340D01*
X136000685Y-76200000D01*
X135977998Y-75969660D01*
X135910811Y-75748171D01*
X135801704Y-75544047D01*
X135654870Y-75365130D01*
X135636435Y-75350000D01*
X138473186Y-75350000D01*
X138473186Y-77050000D01*
X138480426Y-77123513D01*
X138501869Y-77194200D01*
X138536691Y-77259347D01*
X138583552Y-77316448D01*
X138640653Y-77363309D01*
X138705800Y-77398131D01*
X138776487Y-77419574D01*
X138850000Y-77426814D01*
X140550000Y-77426814D01*
X140623513Y-77419574D01*
X140694200Y-77398131D01*
X140759347Y-77363309D01*
X140816448Y-77316448D01*
X140863309Y-77259347D01*
X140898131Y-77194200D01*
X140919574Y-77123513D01*
X140926814Y-77050000D01*
X140926814Y-76084273D01*
X143605000Y-76084273D01*
X143605000Y-76315727D01*
X143650155Y-76542735D01*
X143738729Y-76756571D01*
X143867318Y-76949019D01*
X144030981Y-77112682D01*
X144223429Y-77241271D01*
X144437265Y-77329845D01*
X144664273Y-77375000D01*
X144895727Y-77375000D01*
X145122735Y-77329845D01*
X145336571Y-77241271D01*
X145529019Y-77112682D01*
X145692682Y-76949019D01*
X145821271Y-76756571D01*
X145909845Y-76542735D01*
X145955000Y-76315727D01*
X145955000Y-76084273D01*
X153765000Y-76084273D01*
X153765000Y-76315727D01*
X153810155Y-76542735D01*
X153898729Y-76756571D01*
X154027318Y-76949019D01*
X154190981Y-77112682D01*
X154383429Y-77241271D01*
X154597265Y-77329845D01*
X154824273Y-77375000D01*
X155055727Y-77375000D01*
X155282735Y-77329845D01*
X155496571Y-77241271D01*
X155689019Y-77112682D01*
X155852682Y-76949019D01*
X155981271Y-76756571D01*
X156069845Y-76542735D01*
X156112133Y-76330140D01*
X156122002Y-76430340D01*
X156189189Y-76651829D01*
X156298296Y-76855953D01*
X156445130Y-77034870D01*
X156624047Y-77181704D01*
X156828171Y-77290811D01*
X157049660Y-77357998D01*
X157222280Y-77375000D01*
X157737720Y-77375000D01*
X157910340Y-77357998D01*
X158131829Y-77290811D01*
X158335953Y-77181704D01*
X158514870Y-77034870D01*
X158661704Y-76855953D01*
X158770811Y-76651829D01*
X158799114Y-76558525D01*
X161120990Y-76558525D01*
X161164317Y-76701370D01*
X161288947Y-76964021D01*
X161462423Y-77197311D01*
X161678078Y-77392275D01*
X161927625Y-77541420D01*
X162102279Y-77603664D01*
X161979745Y-77654419D01*
X161779108Y-77788481D01*
X161608481Y-77959108D01*
X161474419Y-78159745D01*
X161382076Y-78382681D01*
X161335000Y-78619348D01*
X161335000Y-78860652D01*
X161382076Y-79097319D01*
X161474419Y-79320255D01*
X161608481Y-79520892D01*
X161779108Y-79691519D01*
X161979745Y-79825581D01*
X162202681Y-79917924D01*
X162439348Y-79965000D01*
X162680652Y-79965000D01*
X162917319Y-79917924D01*
X163140255Y-79825581D01*
X163340892Y-79691519D01*
X163511519Y-79520892D01*
X163645581Y-79320255D01*
X163737924Y-79097319D01*
X163785000Y-78860652D01*
X163785000Y-78619348D01*
X163737924Y-78382681D01*
X163645581Y-78159745D01*
X163511519Y-77959108D01*
X163340892Y-77788481D01*
X163140255Y-77654419D01*
X163017721Y-77603664D01*
X163192375Y-77541420D01*
X163441922Y-77392275D01*
X163657577Y-77197311D01*
X163831053Y-76964021D01*
X163955683Y-76701370D01*
X163999010Y-76558525D01*
X163878454Y-76329000D01*
X162689000Y-76329000D01*
X162689000Y-76349000D01*
X162431000Y-76349000D01*
X162431000Y-76329000D01*
X161241546Y-76329000D01*
X161120990Y-76558525D01*
X158799114Y-76558525D01*
X158837998Y-76430340D01*
X158860685Y-76200000D01*
X158837998Y-75969660D01*
X158770811Y-75748171D01*
X158661704Y-75544047D01*
X158514870Y-75365130D01*
X158335953Y-75218296D01*
X158131829Y-75109189D01*
X157910340Y-75042002D01*
X157737720Y-75025000D01*
X157222280Y-75025000D01*
X157049660Y-75042002D01*
X156828171Y-75109189D01*
X156624047Y-75218296D01*
X156445130Y-75365130D01*
X156298296Y-75544047D01*
X156189189Y-75748171D01*
X156122002Y-75969660D01*
X156112133Y-76069860D01*
X156069845Y-75857265D01*
X155981271Y-75643429D01*
X155852682Y-75450981D01*
X155689019Y-75287318D01*
X155496571Y-75158729D01*
X155282735Y-75070155D01*
X155055727Y-75025000D01*
X154824273Y-75025000D01*
X154597265Y-75070155D01*
X154383429Y-75158729D01*
X154190981Y-75287318D01*
X154027318Y-75450981D01*
X153898729Y-75643429D01*
X153810155Y-75857265D01*
X153765000Y-76084273D01*
X145955000Y-76084273D01*
X145909845Y-75857265D01*
X145821271Y-75643429D01*
X145692682Y-75450981D01*
X145529019Y-75287318D01*
X145336571Y-75158729D01*
X145122735Y-75070155D01*
X144895727Y-75025000D01*
X144664273Y-75025000D01*
X144437265Y-75070155D01*
X144223429Y-75158729D01*
X144030981Y-75287318D01*
X143867318Y-75450981D01*
X143738729Y-75643429D01*
X143650155Y-75857265D01*
X143605000Y-76084273D01*
X140926814Y-76084273D01*
X140926814Y-75350000D01*
X140919574Y-75276487D01*
X140898131Y-75205800D01*
X140863309Y-75140653D01*
X140816448Y-75083552D01*
X140759347Y-75036691D01*
X140694200Y-75001869D01*
X140623513Y-74980426D01*
X140550000Y-74973186D01*
X138850000Y-74973186D01*
X138776487Y-74980426D01*
X138705800Y-75001869D01*
X138640653Y-75036691D01*
X138583552Y-75083552D01*
X138536691Y-75140653D01*
X138501869Y-75205800D01*
X138480426Y-75276487D01*
X138473186Y-75350000D01*
X135636435Y-75350000D01*
X135475953Y-75218296D01*
X135271829Y-75109189D01*
X135050340Y-75042002D01*
X134997667Y-75036814D01*
X135620000Y-75036814D01*
X135693513Y-75029574D01*
X135764200Y-75008131D01*
X135829347Y-74973309D01*
X135886448Y-74926448D01*
X135933309Y-74869347D01*
X135968131Y-74804200D01*
X135989574Y-74733513D01*
X135996814Y-74660000D01*
X135996814Y-73785000D01*
X156111627Y-73785000D01*
X156122002Y-73890340D01*
X156189189Y-74111829D01*
X156298296Y-74315953D01*
X156445130Y-74494870D01*
X156624047Y-74641704D01*
X156828171Y-74750811D01*
X157049660Y-74817998D01*
X157222280Y-74835000D01*
X157737720Y-74835000D01*
X157910340Y-74817998D01*
X158131829Y-74750811D01*
X158335953Y-74641704D01*
X158514870Y-74494870D01*
X158661704Y-74315953D01*
X158770811Y-74111829D01*
X158837998Y-73890340D01*
X158848373Y-73785000D01*
X161333186Y-73785000D01*
X161333186Y-74510000D01*
X161340426Y-74583513D01*
X161361869Y-74654200D01*
X161396691Y-74719347D01*
X161443552Y-74776448D01*
X161500653Y-74823309D01*
X161565800Y-74858131D01*
X161636487Y-74879574D01*
X161710000Y-74886814D01*
X161880384Y-74886814D01*
X161678078Y-75007725D01*
X161462423Y-75202689D01*
X161288947Y-75435979D01*
X161164317Y-75698630D01*
X161120990Y-75841475D01*
X161241546Y-76071000D01*
X162431000Y-76071000D01*
X162431000Y-76051000D01*
X162689000Y-76051000D01*
X162689000Y-76071000D01*
X163878454Y-76071000D01*
X163999010Y-75841475D01*
X163955683Y-75698630D01*
X163831053Y-75435979D01*
X163657577Y-75202689D01*
X163441922Y-75007725D01*
X163239616Y-74886814D01*
X163410000Y-74886814D01*
X163483513Y-74879574D01*
X163554200Y-74858131D01*
X163619347Y-74823309D01*
X163676448Y-74776448D01*
X163723309Y-74719347D01*
X163758131Y-74654200D01*
X163779574Y-74583513D01*
X163786814Y-74510000D01*
X163786814Y-73785000D01*
X174600001Y-73785000D01*
X174600000Y-105983585D01*
X174523473Y-106914404D01*
X174299958Y-107804253D01*
X173934110Y-108645647D01*
X173435751Y-109415992D01*
X172818274Y-110094589D01*
X172098241Y-110663237D01*
X171295017Y-111106641D01*
X170430147Y-111412907D01*
X169519971Y-111575034D01*
X168990573Y-111600000D01*
X125016415Y-111600000D01*
X124085596Y-111523473D01*
X123195747Y-111299958D01*
X122354353Y-110934110D01*
X121584008Y-110435751D01*
X120905411Y-109818274D01*
X120341527Y-109104273D01*
X130905000Y-109104273D01*
X130905000Y-109335727D01*
X130950155Y-109562735D01*
X131038729Y-109776571D01*
X131167318Y-109969019D01*
X131330981Y-110132682D01*
X131523429Y-110261271D01*
X131737265Y-110349845D01*
X131964273Y-110395000D01*
X132195727Y-110395000D01*
X132422735Y-110349845D01*
X132636571Y-110261271D01*
X132829019Y-110132682D01*
X132992682Y-109969019D01*
X133121271Y-109776571D01*
X133209845Y-109562735D01*
X133255000Y-109335727D01*
X133255000Y-109104273D01*
X133209845Y-108877265D01*
X133121271Y-108663429D01*
X132992682Y-108470981D01*
X132829019Y-108307318D01*
X132636571Y-108178729D01*
X132422735Y-108090155D01*
X132195727Y-108045000D01*
X131964273Y-108045000D01*
X131737265Y-108090155D01*
X131523429Y-108178729D01*
X131330981Y-108307318D01*
X131167318Y-108470981D01*
X131038729Y-108663429D01*
X130950155Y-108877265D01*
X130905000Y-109104273D01*
X120341527Y-109104273D01*
X120336763Y-109098241D01*
X119893359Y-108295017D01*
X119587093Y-107430147D01*
X119424966Y-106519971D01*
X119400000Y-105990573D01*
X119400000Y-105212902D01*
X131269531Y-105212902D01*
X131341394Y-105456071D01*
X131596732Y-105576415D01*
X131870641Y-105644632D01*
X132152596Y-105658102D01*
X132431761Y-105616307D01*
X132697408Y-105520852D01*
X132818606Y-105456071D01*
X132890469Y-105212902D01*
X132080000Y-104402434D01*
X131269531Y-105212902D01*
X119400000Y-105212902D01*
X119400000Y-104292596D01*
X130641898Y-104292596D01*
X130683693Y-104571761D01*
X130779148Y-104837408D01*
X130843929Y-104958606D01*
X131087098Y-105030469D01*
X131897566Y-104220000D01*
X132262434Y-104220000D01*
X133072902Y-105030469D01*
X133316071Y-104958606D01*
X133436415Y-104703268D01*
X133504632Y-104429359D01*
X133518102Y-104147404D01*
X133476307Y-103868239D01*
X133380852Y-103602592D01*
X133316071Y-103481394D01*
X133072902Y-103409531D01*
X132262434Y-104220000D01*
X131897566Y-104220000D01*
X131087098Y-103409531D01*
X130843929Y-103481394D01*
X130723585Y-103736732D01*
X130655368Y-104010641D01*
X130641898Y-104292596D01*
X119400000Y-104292596D01*
X119400000Y-103227098D01*
X131269531Y-103227098D01*
X132080000Y-104037566D01*
X132890469Y-103227098D01*
X132818606Y-102983929D01*
X132563268Y-102863585D01*
X132289359Y-102795368D01*
X132007404Y-102781898D01*
X131728239Y-102823693D01*
X131462592Y-102919148D01*
X131341394Y-102983929D01*
X131269531Y-103227098D01*
X119400000Y-103227098D01*
X119400000Y-97830102D01*
X123275000Y-97830102D01*
X123275000Y-98169898D01*
X123341290Y-98503164D01*
X123471324Y-98817094D01*
X123660105Y-99099624D01*
X123900376Y-99339895D01*
X124182906Y-99528676D01*
X124496836Y-99658710D01*
X124830102Y-99725000D01*
X125169898Y-99725000D01*
X125503164Y-99658710D01*
X125817094Y-99528676D01*
X126099624Y-99339895D01*
X126339895Y-99099624D01*
X126528676Y-98817094D01*
X126658710Y-98503164D01*
X126725000Y-98169898D01*
X126725000Y-97830102D01*
X126658710Y-97496836D01*
X126528676Y-97182906D01*
X126339895Y-96900376D01*
X126318044Y-96878525D01*
X161120990Y-96878525D01*
X161164317Y-97021370D01*
X161288947Y-97284021D01*
X161462423Y-97517311D01*
X161678078Y-97712275D01*
X161927625Y-97861420D01*
X162201474Y-97959015D01*
X162431000Y-97839134D01*
X162431000Y-96649000D01*
X162689000Y-96649000D01*
X162689000Y-97839134D01*
X162918526Y-97959015D01*
X163192375Y-97861420D01*
X163244775Y-97830102D01*
X167275000Y-97830102D01*
X167275000Y-98169898D01*
X167341290Y-98503164D01*
X167471324Y-98817094D01*
X167660105Y-99099624D01*
X167900376Y-99339895D01*
X168182906Y-99528676D01*
X168496836Y-99658710D01*
X168830102Y-99725000D01*
X169169898Y-99725000D01*
X169503164Y-99658710D01*
X169817094Y-99528676D01*
X170099624Y-99339895D01*
X170339895Y-99099624D01*
X170528676Y-98817094D01*
X170658710Y-98503164D01*
X170725000Y-98169898D01*
X170725000Y-97830102D01*
X170658710Y-97496836D01*
X170528676Y-97182906D01*
X170339895Y-96900376D01*
X170099624Y-96660105D01*
X169817094Y-96471324D01*
X169503164Y-96341290D01*
X169169898Y-96275000D01*
X168830102Y-96275000D01*
X168496836Y-96341290D01*
X168182906Y-96471324D01*
X167900376Y-96660105D01*
X167660105Y-96900376D01*
X167471324Y-97182906D01*
X167341290Y-97496836D01*
X167275000Y-97830102D01*
X163244775Y-97830102D01*
X163441922Y-97712275D01*
X163657577Y-97517311D01*
X163831053Y-97284021D01*
X163955683Y-97021370D01*
X163999010Y-96878525D01*
X163878454Y-96649000D01*
X162689000Y-96649000D01*
X162431000Y-96649000D01*
X161241546Y-96649000D01*
X161120990Y-96878525D01*
X126318044Y-96878525D01*
X126099624Y-96660105D01*
X125817094Y-96471324D01*
X125503164Y-96341290D01*
X125169898Y-96275000D01*
X124830102Y-96275000D01*
X124496836Y-96341290D01*
X124182906Y-96471324D01*
X123900376Y-96660105D01*
X123660105Y-96900376D01*
X123471324Y-97182906D01*
X123341290Y-97496836D01*
X123275000Y-97830102D01*
X119400000Y-97830102D01*
X119400000Y-87910001D01*
X127110766Y-87910001D01*
X127115000Y-87952990D01*
X127114999Y-92141022D01*
X127110766Y-92184001D01*
X127114999Y-92226979D01*
X127127660Y-92355530D01*
X127177694Y-92520468D01*
X127258943Y-92672476D01*
X127368287Y-92805713D01*
X127401679Y-92833117D01*
X128146887Y-93578326D01*
X128174287Y-93611713D01*
X128307523Y-93721057D01*
X128459531Y-93802306D01*
X128624468Y-93852340D01*
X128795998Y-93869234D01*
X128838977Y-93865001D01*
X133027020Y-93865001D01*
X133069999Y-93869234D01*
X133112978Y-93865001D01*
X133241529Y-93852340D01*
X133406467Y-93802306D01*
X133558475Y-93721057D01*
X133691711Y-93611713D01*
X133719116Y-93578320D01*
X134620000Y-92677436D01*
X136510888Y-94568325D01*
X136538288Y-94601712D01*
X136671524Y-94711056D01*
X136823532Y-94792305D01*
X136950080Y-94830694D01*
X136988469Y-94842339D01*
X137159999Y-94859233D01*
X137202978Y-94855000D01*
X161702589Y-94855000D01*
X161779108Y-94931519D01*
X161979745Y-95065581D01*
X162102279Y-95116336D01*
X161927625Y-95178580D01*
X161678078Y-95327725D01*
X161462423Y-95522689D01*
X161288947Y-95755979D01*
X161164317Y-96018630D01*
X161120990Y-96161475D01*
X161241546Y-96391000D01*
X162431000Y-96391000D01*
X162431000Y-96371000D01*
X162689000Y-96371000D01*
X162689000Y-96391000D01*
X163878454Y-96391000D01*
X163999010Y-96161475D01*
X163955683Y-96018630D01*
X163831053Y-95755979D01*
X163657577Y-95522689D01*
X163441922Y-95327725D01*
X163192375Y-95178580D01*
X163017721Y-95116336D01*
X163140255Y-95065581D01*
X163340892Y-94931519D01*
X163511519Y-94760892D01*
X163645581Y-94560255D01*
X163737924Y-94337319D01*
X163785000Y-94100652D01*
X163785000Y-93859348D01*
X163737924Y-93622681D01*
X163645581Y-93399745D01*
X163511519Y-93199108D01*
X163340892Y-93028481D01*
X163140255Y-92894419D01*
X162917319Y-92802076D01*
X162680652Y-92755000D01*
X162439348Y-92755000D01*
X162202681Y-92802076D01*
X161979745Y-92894419D01*
X161779108Y-93028481D01*
X161702589Y-93105000D01*
X137522437Y-93105000D01*
X135987841Y-91570405D01*
X136000685Y-91440000D01*
X135977998Y-91209660D01*
X135910811Y-90988171D01*
X135801704Y-90784047D01*
X135654870Y-90605130D01*
X135475953Y-90458296D01*
X135271829Y-90349189D01*
X135050340Y-90282002D01*
X134877720Y-90265000D01*
X134362280Y-90265000D01*
X134189660Y-90282002D01*
X133968171Y-90349189D01*
X133764047Y-90458296D01*
X133585130Y-90605130D01*
X133438296Y-90784047D01*
X133329189Y-90988171D01*
X133262002Y-91209660D01*
X133239315Y-91440000D01*
X133252159Y-91570405D01*
X132707563Y-92115001D01*
X130853294Y-92115001D01*
X130935683Y-91941370D01*
X130979010Y-91798525D01*
X130858454Y-91569000D01*
X129669000Y-91569000D01*
X129669000Y-91589000D01*
X129411000Y-91589000D01*
X129411000Y-91569000D01*
X129391000Y-91569000D01*
X129391000Y-91311000D01*
X129411000Y-91311000D01*
X129411000Y-91291000D01*
X129669000Y-91291000D01*
X129669000Y-91311000D01*
X130858454Y-91311000D01*
X130979010Y-91081475D01*
X130935683Y-90938630D01*
X130811053Y-90675979D01*
X130637577Y-90442689D01*
X130421922Y-90247725D01*
X130172375Y-90098580D01*
X129997721Y-90036336D01*
X130120255Y-89985581D01*
X130320892Y-89851519D01*
X130491519Y-89680892D01*
X130625581Y-89480255D01*
X130717924Y-89257319D01*
X130765000Y-89020652D01*
X130765000Y-88900000D01*
X133239315Y-88900000D01*
X133262002Y-89130340D01*
X133329189Y-89351829D01*
X133438296Y-89555953D01*
X133585130Y-89734870D01*
X133764047Y-89881704D01*
X133968171Y-89990811D01*
X134189660Y-90057998D01*
X134362280Y-90075000D01*
X134877720Y-90075000D01*
X135050340Y-90057998D01*
X135271829Y-89990811D01*
X135475953Y-89881704D01*
X135654870Y-89734870D01*
X135801704Y-89555953D01*
X135910811Y-89351829D01*
X135941496Y-89250672D01*
X155890569Y-89250672D01*
X155900068Y-89304309D01*
X156005460Y-89565752D01*
X156159832Y-89801610D01*
X156357251Y-90002820D01*
X156590131Y-90161649D01*
X156849522Y-90271994D01*
X156987600Y-90300827D01*
X156828171Y-90349189D01*
X156624047Y-90458296D01*
X156445130Y-90605130D01*
X156298296Y-90784047D01*
X156189189Y-90988171D01*
X156122002Y-91209660D01*
X156099315Y-91440000D01*
X156122002Y-91670340D01*
X156189189Y-91891829D01*
X156298296Y-92095953D01*
X156445130Y-92274870D01*
X156624047Y-92421704D01*
X156828171Y-92530811D01*
X157049660Y-92597998D01*
X157222280Y-92615000D01*
X157737720Y-92615000D01*
X157910340Y-92597998D01*
X158131829Y-92530811D01*
X158335953Y-92421704D01*
X158514870Y-92274870D01*
X158661704Y-92095953D01*
X158770811Y-91891829D01*
X158837998Y-91670340D01*
X158860685Y-91440000D01*
X158848802Y-91319348D01*
X161335000Y-91319348D01*
X161335000Y-91560652D01*
X161382076Y-91797319D01*
X161474419Y-92020255D01*
X161608481Y-92220892D01*
X161779108Y-92391519D01*
X161979745Y-92525581D01*
X162202681Y-92617924D01*
X162439348Y-92665000D01*
X162680652Y-92665000D01*
X162917319Y-92617924D01*
X163140255Y-92525581D01*
X163340892Y-92391519D01*
X163511519Y-92220892D01*
X163645581Y-92020255D01*
X163737924Y-91797319D01*
X163785000Y-91560652D01*
X163785000Y-91319348D01*
X163737924Y-91082681D01*
X163645581Y-90859745D01*
X163511519Y-90659108D01*
X163340892Y-90488481D01*
X163140255Y-90354419D01*
X162917319Y-90262076D01*
X162680652Y-90215000D01*
X162439348Y-90215000D01*
X162202681Y-90262076D01*
X161979745Y-90354419D01*
X161779108Y-90488481D01*
X161608481Y-90659108D01*
X161474419Y-90859745D01*
X161382076Y-91082681D01*
X161335000Y-91319348D01*
X158848802Y-91319348D01*
X158837998Y-91209660D01*
X158770811Y-90988171D01*
X158661704Y-90784047D01*
X158514870Y-90605130D01*
X158335953Y-90458296D01*
X158131829Y-90349189D01*
X157972400Y-90300827D01*
X158110478Y-90271994D01*
X158369869Y-90161649D01*
X158602749Y-90002820D01*
X158800168Y-89801610D01*
X158954540Y-89565752D01*
X159059932Y-89304309D01*
X159069431Y-89250672D01*
X158948206Y-89029000D01*
X157609000Y-89029000D01*
X157609000Y-89049000D01*
X157351000Y-89049000D01*
X157351000Y-89029000D01*
X156011794Y-89029000D01*
X155890569Y-89250672D01*
X135941496Y-89250672D01*
X135977998Y-89130340D01*
X136000685Y-88900000D01*
X135977998Y-88669660D01*
X135941497Y-88549328D01*
X155890569Y-88549328D01*
X156011794Y-88771000D01*
X157351000Y-88771000D01*
X157351000Y-88751000D01*
X157609000Y-88751000D01*
X157609000Y-88771000D01*
X158948206Y-88771000D01*
X159069431Y-88549328D01*
X159059932Y-88495691D01*
X158954540Y-88234248D01*
X158833948Y-88050000D01*
X161333186Y-88050000D01*
X161333186Y-89750000D01*
X161340426Y-89823513D01*
X161361869Y-89894200D01*
X161396691Y-89959347D01*
X161443552Y-90016448D01*
X161500653Y-90063309D01*
X161565800Y-90098131D01*
X161636487Y-90119574D01*
X161710000Y-90126814D01*
X163410000Y-90126814D01*
X163483513Y-90119574D01*
X163554200Y-90098131D01*
X163619347Y-90063309D01*
X163676448Y-90016448D01*
X163723309Y-89959347D01*
X163758131Y-89894200D01*
X163779574Y-89823513D01*
X163786814Y-89750000D01*
X163786814Y-88050000D01*
X163779574Y-87976487D01*
X163758131Y-87905800D01*
X163723309Y-87840653D01*
X163676448Y-87783552D01*
X163619347Y-87736691D01*
X163554200Y-87701869D01*
X163483513Y-87680426D01*
X163410000Y-87673186D01*
X161710000Y-87673186D01*
X161636487Y-87680426D01*
X161565800Y-87701869D01*
X161500653Y-87736691D01*
X161443552Y-87783552D01*
X161396691Y-87840653D01*
X161361869Y-87905800D01*
X161340426Y-87976487D01*
X161333186Y-88050000D01*
X158833948Y-88050000D01*
X158800168Y-87998390D01*
X158602749Y-87797180D01*
X158369869Y-87638351D01*
X158110478Y-87528006D01*
X157972400Y-87499173D01*
X158131829Y-87450811D01*
X158335953Y-87341704D01*
X158514870Y-87194870D01*
X158661704Y-87015953D01*
X158770811Y-86811829D01*
X158837998Y-86590340D01*
X158860685Y-86360000D01*
X158837998Y-86129660D01*
X158770811Y-85908171D01*
X158661704Y-85704047D01*
X158514870Y-85525130D01*
X158335953Y-85378296D01*
X158131829Y-85269189D01*
X157910340Y-85202002D01*
X157737720Y-85185000D01*
X157222280Y-85185000D01*
X157049660Y-85202002D01*
X156828171Y-85269189D01*
X156624047Y-85378296D01*
X156445130Y-85525130D01*
X156298296Y-85704047D01*
X156189189Y-85908171D01*
X156122002Y-86129660D01*
X156099315Y-86360000D01*
X156122002Y-86590340D01*
X156189189Y-86811829D01*
X156298296Y-87015953D01*
X156445130Y-87194870D01*
X156624047Y-87341704D01*
X156828171Y-87450811D01*
X156987600Y-87499173D01*
X156849522Y-87528006D01*
X156590131Y-87638351D01*
X156357251Y-87797180D01*
X156159832Y-87998390D01*
X156005460Y-88234248D01*
X155900068Y-88495691D01*
X155890569Y-88549328D01*
X135941497Y-88549328D01*
X135910811Y-88448171D01*
X135801704Y-88244047D01*
X135654870Y-88065130D01*
X135475953Y-87918296D01*
X135271829Y-87809189D01*
X135050340Y-87742002D01*
X134877720Y-87725000D01*
X134362280Y-87725000D01*
X134189660Y-87742002D01*
X133968171Y-87809189D01*
X133764047Y-87918296D01*
X133585130Y-88065130D01*
X133438296Y-88244047D01*
X133329189Y-88448171D01*
X133262002Y-88669660D01*
X133239315Y-88900000D01*
X130765000Y-88900000D01*
X130765000Y-88779348D01*
X130717924Y-88542681D01*
X130625581Y-88319745D01*
X130491519Y-88119108D01*
X130320892Y-87948481D01*
X130120255Y-87814419D01*
X129897319Y-87722076D01*
X129660652Y-87675000D01*
X129462436Y-87675000D01*
X129550622Y-87586814D01*
X130390000Y-87586814D01*
X130463513Y-87579574D01*
X130534200Y-87558131D01*
X130599347Y-87523309D01*
X130656448Y-87476448D01*
X130703309Y-87419347D01*
X130738131Y-87354200D01*
X130759574Y-87283513D01*
X130766814Y-87210000D01*
X130766814Y-86360000D01*
X133239315Y-86360000D01*
X133262002Y-86590340D01*
X133329189Y-86811829D01*
X133438296Y-87015953D01*
X133585130Y-87194870D01*
X133764047Y-87341704D01*
X133968171Y-87450811D01*
X134189660Y-87517998D01*
X134362280Y-87535000D01*
X134877720Y-87535000D01*
X135050340Y-87517998D01*
X135271829Y-87450811D01*
X135475953Y-87341704D01*
X135654870Y-87194870D01*
X135801704Y-87015953D01*
X135910811Y-86811829D01*
X135977998Y-86590340D01*
X136000685Y-86360000D01*
X135977998Y-86129660D01*
X135910811Y-85908171D01*
X135801704Y-85704047D01*
X135654870Y-85525130D01*
X135475953Y-85378296D01*
X135271829Y-85269189D01*
X135050340Y-85202002D01*
X134877720Y-85185000D01*
X134362280Y-85185000D01*
X134189660Y-85202002D01*
X133968171Y-85269189D01*
X133764047Y-85378296D01*
X133585130Y-85525130D01*
X133438296Y-85704047D01*
X133329189Y-85908171D01*
X133262002Y-86129660D01*
X133239315Y-86360000D01*
X130766814Y-86360000D01*
X130766814Y-85510000D01*
X130759574Y-85436487D01*
X130738131Y-85365800D01*
X130703309Y-85300653D01*
X130656448Y-85243552D01*
X130599347Y-85196691D01*
X130534200Y-85161869D01*
X130463513Y-85140426D01*
X130390000Y-85133186D01*
X128690000Y-85133186D01*
X128616487Y-85140426D01*
X128545800Y-85161869D01*
X128480653Y-85196691D01*
X128423552Y-85243552D01*
X128376691Y-85300653D01*
X128341869Y-85365800D01*
X128320426Y-85436487D01*
X128313186Y-85510000D01*
X128313186Y-86349378D01*
X127401675Y-87260889D01*
X127368288Y-87288289D01*
X127258944Y-87421525D01*
X127215515Y-87502775D01*
X127177694Y-87573534D01*
X127127660Y-87738472D01*
X127110766Y-87910001D01*
X119400000Y-87910001D01*
X119400000Y-83820000D01*
X133239315Y-83820000D01*
X133262002Y-84050340D01*
X133329189Y-84271829D01*
X133438296Y-84475953D01*
X133585130Y-84654870D01*
X133764047Y-84801704D01*
X133968171Y-84910811D01*
X134189660Y-84977998D01*
X134362280Y-84995000D01*
X134877720Y-84995000D01*
X135050340Y-84977998D01*
X135271829Y-84910811D01*
X135475953Y-84801704D01*
X135654870Y-84654870D01*
X135801704Y-84475953D01*
X135910811Y-84271829D01*
X135977998Y-84050340D01*
X136000685Y-83820000D01*
X156099315Y-83820000D01*
X156122002Y-84050340D01*
X156189189Y-84271829D01*
X156298296Y-84475953D01*
X156445130Y-84654870D01*
X156624047Y-84801704D01*
X156828171Y-84910811D01*
X157049660Y-84977998D01*
X157222280Y-84995000D01*
X157737720Y-84995000D01*
X157910340Y-84977998D01*
X158131829Y-84910811D01*
X158335953Y-84801704D01*
X158514870Y-84654870D01*
X158661704Y-84475953D01*
X158770811Y-84271829D01*
X158799114Y-84178525D01*
X161120990Y-84178525D01*
X161164317Y-84321370D01*
X161288947Y-84584021D01*
X161462423Y-84817311D01*
X161678078Y-85012275D01*
X161927625Y-85161420D01*
X162201474Y-85259015D01*
X162431000Y-85139134D01*
X162431000Y-83949000D01*
X162689000Y-83949000D01*
X162689000Y-85139134D01*
X162918526Y-85259015D01*
X163192375Y-85161420D01*
X163441922Y-85012275D01*
X163657577Y-84817311D01*
X163831053Y-84584021D01*
X163955683Y-84321370D01*
X163999010Y-84178525D01*
X163878454Y-83949000D01*
X162689000Y-83949000D01*
X162431000Y-83949000D01*
X161241546Y-83949000D01*
X161120990Y-84178525D01*
X158799114Y-84178525D01*
X158837998Y-84050340D01*
X158860685Y-83820000D01*
X158837998Y-83589660D01*
X158799115Y-83461475D01*
X161120990Y-83461475D01*
X161241546Y-83691000D01*
X162431000Y-83691000D01*
X162431000Y-83671000D01*
X162689000Y-83671000D01*
X162689000Y-83691000D01*
X163878454Y-83691000D01*
X163999010Y-83461475D01*
X163955683Y-83318630D01*
X163831053Y-83055979D01*
X163657577Y-82822689D01*
X163441922Y-82627725D01*
X163192375Y-82478580D01*
X163017721Y-82416336D01*
X163140255Y-82365581D01*
X163340892Y-82231519D01*
X163511519Y-82060892D01*
X163645581Y-81860255D01*
X163737924Y-81637319D01*
X163785000Y-81400652D01*
X163785000Y-81159348D01*
X163737924Y-80922681D01*
X163645581Y-80699745D01*
X163511519Y-80499108D01*
X163340892Y-80328481D01*
X163140255Y-80194419D01*
X162917319Y-80102076D01*
X162680652Y-80055000D01*
X162439348Y-80055000D01*
X162202681Y-80102076D01*
X161979745Y-80194419D01*
X161779108Y-80328481D01*
X161608481Y-80499108D01*
X161474419Y-80699745D01*
X161382076Y-80922681D01*
X161335000Y-81159348D01*
X161335000Y-81400652D01*
X161382076Y-81637319D01*
X161474419Y-81860255D01*
X161608481Y-82060892D01*
X161779108Y-82231519D01*
X161979745Y-82365581D01*
X162102279Y-82416336D01*
X161927625Y-82478580D01*
X161678078Y-82627725D01*
X161462423Y-82822689D01*
X161288947Y-83055979D01*
X161164317Y-83318630D01*
X161120990Y-83461475D01*
X158799115Y-83461475D01*
X158770811Y-83368171D01*
X158661704Y-83164047D01*
X158514870Y-82985130D01*
X158335953Y-82838296D01*
X158131829Y-82729189D01*
X157910340Y-82662002D01*
X157737720Y-82645000D01*
X157222280Y-82645000D01*
X157049660Y-82662002D01*
X156828171Y-82729189D01*
X156624047Y-82838296D01*
X156445130Y-82985130D01*
X156298296Y-83164047D01*
X156189189Y-83368171D01*
X156122002Y-83589660D01*
X156099315Y-83820000D01*
X136000685Y-83820000D01*
X135977998Y-83589660D01*
X135910811Y-83368171D01*
X135801704Y-83164047D01*
X135654870Y-82985130D01*
X135475953Y-82838296D01*
X135271829Y-82729189D01*
X135050340Y-82662002D01*
X134877720Y-82645000D01*
X134362280Y-82645000D01*
X134189660Y-82662002D01*
X133968171Y-82729189D01*
X133764047Y-82838296D01*
X133585130Y-82985130D01*
X133438296Y-83164047D01*
X133329189Y-83368171D01*
X133262002Y-83589660D01*
X133239315Y-83820000D01*
X119400000Y-83820000D01*
X119400000Y-81638525D01*
X128100990Y-81638525D01*
X128144317Y-81781370D01*
X128268947Y-82044021D01*
X128442423Y-82277311D01*
X128658078Y-82472275D01*
X128907625Y-82621420D01*
X129181474Y-82719015D01*
X129411000Y-82599134D01*
X129411000Y-81409000D01*
X129669000Y-81409000D01*
X129669000Y-82599134D01*
X129898526Y-82719015D01*
X130172375Y-82621420D01*
X130421922Y-82472275D01*
X130637577Y-82277311D01*
X130811053Y-82044021D01*
X130935683Y-81781370D01*
X130979010Y-81638525D01*
X130858454Y-81409000D01*
X129669000Y-81409000D01*
X129411000Y-81409000D01*
X128221546Y-81409000D01*
X128100990Y-81638525D01*
X119400000Y-81638525D01*
X119400000Y-81280000D01*
X133239315Y-81280000D01*
X133262002Y-81510340D01*
X133329189Y-81731829D01*
X133438296Y-81935953D01*
X133585130Y-82114870D01*
X133764047Y-82261704D01*
X133968171Y-82370811D01*
X134189660Y-82437998D01*
X134362280Y-82455000D01*
X134877720Y-82455000D01*
X135050340Y-82437998D01*
X135271829Y-82370811D01*
X135475953Y-82261704D01*
X135654870Y-82114870D01*
X135801704Y-81935953D01*
X135910811Y-81731829D01*
X135977998Y-81510340D01*
X136000685Y-81280000D01*
X156099315Y-81280000D01*
X156122002Y-81510340D01*
X156189189Y-81731829D01*
X156298296Y-81935953D01*
X156445130Y-82114870D01*
X156624047Y-82261704D01*
X156828171Y-82370811D01*
X157049660Y-82437998D01*
X157222280Y-82455000D01*
X157737720Y-82455000D01*
X157910340Y-82437998D01*
X158131829Y-82370811D01*
X158335953Y-82261704D01*
X158514870Y-82114870D01*
X158661704Y-81935953D01*
X158770811Y-81731829D01*
X158837998Y-81510340D01*
X158860685Y-81280000D01*
X158837998Y-81049660D01*
X158770811Y-80828171D01*
X158661704Y-80624047D01*
X158514870Y-80445130D01*
X158335953Y-80298296D01*
X158131829Y-80189189D01*
X157910340Y-80122002D01*
X157737720Y-80105000D01*
X157222280Y-80105000D01*
X157049660Y-80122002D01*
X156828171Y-80189189D01*
X156624047Y-80298296D01*
X156445130Y-80445130D01*
X156298296Y-80624047D01*
X156189189Y-80828171D01*
X156122002Y-81049660D01*
X156099315Y-81280000D01*
X136000685Y-81280000D01*
X135977998Y-81049660D01*
X135910811Y-80828171D01*
X135801704Y-80624047D01*
X135654870Y-80445130D01*
X135475953Y-80298296D01*
X135271829Y-80189189D01*
X135050340Y-80122002D01*
X134877720Y-80105000D01*
X134362280Y-80105000D01*
X134189660Y-80122002D01*
X133968171Y-80189189D01*
X133764047Y-80298296D01*
X133585130Y-80445130D01*
X133438296Y-80624047D01*
X133329189Y-80828171D01*
X133262002Y-81049660D01*
X133239315Y-81280000D01*
X119400000Y-81280000D01*
X119400000Y-80921475D01*
X128100990Y-80921475D01*
X128221546Y-81151000D01*
X129411000Y-81151000D01*
X129411000Y-81131000D01*
X129669000Y-81131000D01*
X129669000Y-81151000D01*
X130858454Y-81151000D01*
X130979010Y-80921475D01*
X130935683Y-80778630D01*
X130811053Y-80515979D01*
X130637577Y-80282689D01*
X130421922Y-80087725D01*
X130172375Y-79938580D01*
X129997721Y-79876336D01*
X130120255Y-79825581D01*
X130320892Y-79691519D01*
X130491519Y-79520892D01*
X130625581Y-79320255D01*
X130717924Y-79097319D01*
X130765000Y-78860652D01*
X130765000Y-78740000D01*
X133239315Y-78740000D01*
X133262002Y-78970340D01*
X133329189Y-79191829D01*
X133438296Y-79395953D01*
X133585130Y-79574870D01*
X133764047Y-79721704D01*
X133968171Y-79830811D01*
X134189660Y-79897998D01*
X134362280Y-79915000D01*
X134877720Y-79915000D01*
X135050340Y-79897998D01*
X135271829Y-79830811D01*
X135475953Y-79721704D01*
X135654870Y-79574870D01*
X135801704Y-79395953D01*
X135910811Y-79191829D01*
X135977998Y-78970340D01*
X136000685Y-78740000D01*
X135988802Y-78619348D01*
X138475000Y-78619348D01*
X138475000Y-78860652D01*
X138522076Y-79097319D01*
X138614419Y-79320255D01*
X138748481Y-79520892D01*
X138919108Y-79691519D01*
X139119745Y-79825581D01*
X139342681Y-79917924D01*
X139579348Y-79965000D01*
X139820652Y-79965000D01*
X140057319Y-79917924D01*
X140280255Y-79825581D01*
X140480892Y-79691519D01*
X140651519Y-79520892D01*
X140785581Y-79320255D01*
X140877924Y-79097319D01*
X140925000Y-78860652D01*
X140925000Y-78740000D01*
X156099315Y-78740000D01*
X156122002Y-78970340D01*
X156189189Y-79191829D01*
X156298296Y-79395953D01*
X156445130Y-79574870D01*
X156624047Y-79721704D01*
X156828171Y-79830811D01*
X157049660Y-79897998D01*
X157222280Y-79915000D01*
X157737720Y-79915000D01*
X157910340Y-79897998D01*
X158131829Y-79830811D01*
X158335953Y-79721704D01*
X158514870Y-79574870D01*
X158661704Y-79395953D01*
X158770811Y-79191829D01*
X158837998Y-78970340D01*
X158860685Y-78740000D01*
X158837998Y-78509660D01*
X158770811Y-78288171D01*
X158661704Y-78084047D01*
X158514870Y-77905130D01*
X158335953Y-77758296D01*
X158131829Y-77649189D01*
X157910340Y-77582002D01*
X157737720Y-77565000D01*
X157222280Y-77565000D01*
X157049660Y-77582002D01*
X156828171Y-77649189D01*
X156624047Y-77758296D01*
X156445130Y-77905130D01*
X156298296Y-78084047D01*
X156189189Y-78288171D01*
X156122002Y-78509660D01*
X156099315Y-78740000D01*
X140925000Y-78740000D01*
X140925000Y-78619348D01*
X140877924Y-78382681D01*
X140785581Y-78159745D01*
X140651519Y-77959108D01*
X140480892Y-77788481D01*
X140280255Y-77654419D01*
X140057319Y-77562076D01*
X139820652Y-77515000D01*
X139579348Y-77515000D01*
X139342681Y-77562076D01*
X139119745Y-77654419D01*
X138919108Y-77788481D01*
X138748481Y-77959108D01*
X138614419Y-78159745D01*
X138522076Y-78382681D01*
X138475000Y-78619348D01*
X135988802Y-78619348D01*
X135977998Y-78509660D01*
X135910811Y-78288171D01*
X135801704Y-78084047D01*
X135654870Y-77905130D01*
X135475953Y-77758296D01*
X135271829Y-77649189D01*
X135050340Y-77582002D01*
X134877720Y-77565000D01*
X134362280Y-77565000D01*
X134189660Y-77582002D01*
X133968171Y-77649189D01*
X133764047Y-77758296D01*
X133585130Y-77905130D01*
X133438296Y-78084047D01*
X133329189Y-78288171D01*
X133262002Y-78509660D01*
X133239315Y-78740000D01*
X130765000Y-78740000D01*
X130765000Y-78619348D01*
X130717924Y-78382681D01*
X130625581Y-78159745D01*
X130491519Y-77959108D01*
X130320892Y-77788481D01*
X130120255Y-77654419D01*
X129897319Y-77562076D01*
X129660652Y-77515000D01*
X129419348Y-77515000D01*
X129182681Y-77562076D01*
X128959745Y-77654419D01*
X128759108Y-77788481D01*
X128588481Y-77959108D01*
X128454419Y-78159745D01*
X128362076Y-78382681D01*
X128315000Y-78619348D01*
X128315000Y-78860652D01*
X128362076Y-79097319D01*
X128454419Y-79320255D01*
X128588481Y-79520892D01*
X128759108Y-79691519D01*
X128959745Y-79825581D01*
X129082279Y-79876336D01*
X128907625Y-79938580D01*
X128658078Y-80087725D01*
X128442423Y-80282689D01*
X128268947Y-80515979D01*
X128144317Y-80778630D01*
X128100990Y-80921475D01*
X119400000Y-80921475D01*
X119400000Y-75350000D01*
X128313186Y-75350000D01*
X128313186Y-77050000D01*
X128320426Y-77123513D01*
X128341869Y-77194200D01*
X128376691Y-77259347D01*
X128423552Y-77316448D01*
X128480653Y-77363309D01*
X128545800Y-77398131D01*
X128616487Y-77419574D01*
X128690000Y-77426814D01*
X130390000Y-77426814D01*
X130463513Y-77419574D01*
X130534200Y-77398131D01*
X130599347Y-77363309D01*
X130656448Y-77316448D01*
X130703309Y-77259347D01*
X130738131Y-77194200D01*
X130759574Y-77123513D01*
X130766814Y-77050000D01*
X130766814Y-75350000D01*
X130759574Y-75276487D01*
X130738131Y-75205800D01*
X130703309Y-75140653D01*
X130656448Y-75083552D01*
X130599347Y-75036691D01*
X130534200Y-75001869D01*
X130463513Y-74980426D01*
X130390000Y-74973186D01*
X128690000Y-74973186D01*
X128616487Y-74980426D01*
X128545800Y-75001869D01*
X128480653Y-75036691D01*
X128423552Y-75083552D01*
X128376691Y-75140653D01*
X128341869Y-75205800D01*
X128320426Y-75276487D01*
X128313186Y-75350000D01*
X119400000Y-75350000D01*
X119400000Y-73785000D01*
X133243186Y-73785000D01*
X133243186Y-74660000D01*
G37*
%TD.AperFunction*%
%TD*%
M02*
