%TF.GenerationSoftware,KiCad,Pcbnew,5.1.8*%
%TF.CreationDate,2020-11-27T01:12:46+01:00*%
%TF.ProjectId,co2box,636f3262-6f78-42e6-9b69-6361645f7063,v0*%
%TF.SameCoordinates,Original*%
%TF.FileFunction,Legend,Top*%
%TF.FilePolarity,Positive*%
%FSLAX46Y46*%
G04 Gerber Fmt 4.6, Leading zero omitted, Abs format (unit mm)*
G04 Created by KiCad (PCBNEW 5.1.8) date 2020-11-27 01:12:46*
%MOMM*%
%LPD*%
G01*
G04 APERTURE LIST*
%ADD10C,0.300000*%
%ADD11C,0.150000*%
%ADD12C,0.120000*%
G04 APERTURE END LIST*
D10*
X152814047Y-105314285D02*
X152718809Y-105409523D01*
X152433095Y-105504761D01*
X152242619Y-105504761D01*
X151956904Y-105409523D01*
X151766428Y-105219047D01*
X151671190Y-105028571D01*
X151575952Y-104647619D01*
X151575952Y-104361904D01*
X151671190Y-103980952D01*
X151766428Y-103790476D01*
X151956904Y-103600000D01*
X152242619Y-103504761D01*
X152433095Y-103504761D01*
X152718809Y-103600000D01*
X152814047Y-103695238D01*
X154052142Y-103504761D02*
X154433095Y-103504761D01*
X154623571Y-103600000D01*
X154814047Y-103790476D01*
X154909285Y-104171428D01*
X154909285Y-104838095D01*
X154814047Y-105219047D01*
X154623571Y-105409523D01*
X154433095Y-105504761D01*
X154052142Y-105504761D01*
X153861666Y-105409523D01*
X153671190Y-105219047D01*
X153575952Y-104838095D01*
X153575952Y-104171428D01*
X153671190Y-103790476D01*
X153861666Y-103600000D01*
X154052142Y-103504761D01*
X155671190Y-103695238D02*
X155766428Y-103600000D01*
X155956904Y-103504761D01*
X156433095Y-103504761D01*
X156623571Y-103600000D01*
X156718809Y-103695238D01*
X156814047Y-103885714D01*
X156814047Y-104076190D01*
X156718809Y-104361904D01*
X155575952Y-105504761D01*
X156814047Y-105504761D01*
X157671190Y-105504761D02*
X157671190Y-103504761D01*
X157671190Y-104266666D02*
X157861666Y-104171428D01*
X158242619Y-104171428D01*
X158433095Y-104266666D01*
X158528333Y-104361904D01*
X158623571Y-104552380D01*
X158623571Y-105123809D01*
X158528333Y-105314285D01*
X158433095Y-105409523D01*
X158242619Y-105504761D01*
X157861666Y-105504761D01*
X157671190Y-105409523D01*
X159766428Y-105504761D02*
X159575952Y-105409523D01*
X159480714Y-105314285D01*
X159385476Y-105123809D01*
X159385476Y-104552380D01*
X159480714Y-104361904D01*
X159575952Y-104266666D01*
X159766428Y-104171428D01*
X160052142Y-104171428D01*
X160242619Y-104266666D01*
X160337857Y-104361904D01*
X160433095Y-104552380D01*
X160433095Y-105123809D01*
X160337857Y-105314285D01*
X160242619Y-105409523D01*
X160052142Y-105504761D01*
X159766428Y-105504761D01*
X161099761Y-105504761D02*
X162147380Y-104171428D01*
X161099761Y-104171428D02*
X162147380Y-105504761D01*
X164337857Y-103695238D02*
X164433095Y-103600000D01*
X164623571Y-103504761D01*
X165099761Y-103504761D01*
X165290238Y-103600000D01*
X165385476Y-103695238D01*
X165480714Y-103885714D01*
X165480714Y-104076190D01*
X165385476Y-104361904D01*
X164242619Y-105504761D01*
X165480714Y-105504761D01*
X166718809Y-103504761D02*
X166909285Y-103504761D01*
X167099761Y-103600000D01*
X167195000Y-103695238D01*
X167290238Y-103885714D01*
X167385476Y-104266666D01*
X167385476Y-104742857D01*
X167290238Y-105123809D01*
X167195000Y-105314285D01*
X167099761Y-105409523D01*
X166909285Y-105504761D01*
X166718809Y-105504761D01*
X166528333Y-105409523D01*
X166433095Y-105314285D01*
X166337857Y-105123809D01*
X166242619Y-104742857D01*
X166242619Y-104266666D01*
X166337857Y-103885714D01*
X166433095Y-103695238D01*
X166528333Y-103600000D01*
X166718809Y-103504761D01*
X168147380Y-103695238D02*
X168242619Y-103600000D01*
X168433095Y-103504761D01*
X168909285Y-103504761D01*
X169099761Y-103600000D01*
X169195000Y-103695238D01*
X169290238Y-103885714D01*
X169290238Y-104076190D01*
X169195000Y-104361904D01*
X168052142Y-105504761D01*
X169290238Y-105504761D01*
X170528333Y-103504761D02*
X170718809Y-103504761D01*
X170909285Y-103600000D01*
X171004523Y-103695238D01*
X171099761Y-103885714D01*
X171195000Y-104266666D01*
X171195000Y-104742857D01*
X171099761Y-105123809D01*
X171004523Y-105314285D01*
X170909285Y-105409523D01*
X170718809Y-105504761D01*
X170528333Y-105504761D01*
X170337857Y-105409523D01*
X170242619Y-105314285D01*
X170147380Y-105123809D01*
X170052142Y-104742857D01*
X170052142Y-104266666D01*
X170147380Y-103885714D01*
X170242619Y-103695238D01*
X170337857Y-103600000D01*
X170528333Y-103504761D01*
X151671190Y-108804761D02*
X151671190Y-106804761D01*
X151671190Y-107757142D02*
X152814047Y-107757142D01*
X152814047Y-108804761D02*
X152814047Y-106804761D01*
X153480714Y-106804761D02*
X154623571Y-106804761D01*
X154052142Y-108804761D02*
X154052142Y-106804761D01*
X156242619Y-108804761D02*
X155290238Y-108804761D01*
X155290238Y-106804761D01*
X158242619Y-106804761D02*
X158718809Y-108804761D01*
X159099761Y-107376190D01*
X159480714Y-108804761D01*
X159956904Y-106804761D01*
X161480714Y-108709523D02*
X161290238Y-108804761D01*
X160909285Y-108804761D01*
X160718809Y-108709523D01*
X160623571Y-108519047D01*
X160623571Y-107757142D01*
X160718809Y-107566666D01*
X160909285Y-107471428D01*
X161290238Y-107471428D01*
X161480714Y-107566666D01*
X161575952Y-107757142D01*
X161575952Y-107947619D01*
X160623571Y-108138095D01*
X162433095Y-108804761D02*
X162433095Y-107471428D01*
X162433095Y-106804761D02*
X162337857Y-106900000D01*
X162433095Y-106995238D01*
X162528333Y-106900000D01*
X162433095Y-106804761D01*
X162433095Y-106995238D01*
X163195000Y-107471428D02*
X164242619Y-107471428D01*
X163195000Y-108804761D01*
X164242619Y-108804761D01*
D11*
X164705357Y-83272380D02*
X164943452Y-84272380D01*
X165133928Y-83558095D01*
X165324404Y-84272380D01*
X165562500Y-83272380D01*
X165895833Y-83986666D02*
X166372023Y-83986666D01*
X165800595Y-84272380D02*
X166133928Y-83272380D01*
X166467261Y-84272380D01*
X166800595Y-84272380D02*
X166800595Y-83272380D01*
X167372023Y-84272380D02*
X166943452Y-83700952D01*
X167372023Y-83272380D02*
X166800595Y-83843809D01*
X164752976Y-81684761D02*
X164895833Y-81732380D01*
X165133928Y-81732380D01*
X165229166Y-81684761D01*
X165276785Y-81637142D01*
X165324404Y-81541904D01*
X165324404Y-81446666D01*
X165276785Y-81351428D01*
X165229166Y-81303809D01*
X165133928Y-81256190D01*
X164943452Y-81208571D01*
X164848214Y-81160952D01*
X164800595Y-81113333D01*
X164752976Y-81018095D01*
X164752976Y-80922857D01*
X164800595Y-80827619D01*
X164848214Y-80780000D01*
X164943452Y-80732380D01*
X165181547Y-80732380D01*
X165324404Y-80780000D01*
X165752976Y-81732380D02*
X165752976Y-80732380D01*
X165991071Y-80732380D01*
X166133928Y-80780000D01*
X166229166Y-80875238D01*
X166276785Y-80970476D01*
X166324404Y-81160952D01*
X166324404Y-81303809D01*
X166276785Y-81494285D01*
X166229166Y-81589523D01*
X166133928Y-81684761D01*
X165991071Y-81732380D01*
X165752976Y-81732380D01*
X166705357Y-81446666D02*
X167181547Y-81446666D01*
X166610119Y-81732380D02*
X166943452Y-80732380D01*
X167276785Y-81732380D01*
X164752976Y-79144761D02*
X164895833Y-79192380D01*
X165133928Y-79192380D01*
X165229166Y-79144761D01*
X165276785Y-79097142D01*
X165324404Y-79001904D01*
X165324404Y-78906666D01*
X165276785Y-78811428D01*
X165229166Y-78763809D01*
X165133928Y-78716190D01*
X164943452Y-78668571D01*
X164848214Y-78620952D01*
X164800595Y-78573333D01*
X164752976Y-78478095D01*
X164752976Y-78382857D01*
X164800595Y-78287619D01*
X164848214Y-78240000D01*
X164943452Y-78192380D01*
X165181547Y-78192380D01*
X165324404Y-78240000D01*
X166324404Y-79097142D02*
X166276785Y-79144761D01*
X166133928Y-79192380D01*
X166038690Y-79192380D01*
X165895833Y-79144761D01*
X165800595Y-79049523D01*
X165752976Y-78954285D01*
X165705357Y-78763809D01*
X165705357Y-78620952D01*
X165752976Y-78430476D01*
X165800595Y-78335238D01*
X165895833Y-78240000D01*
X166038690Y-78192380D01*
X166133928Y-78192380D01*
X166276785Y-78240000D01*
X166324404Y-78287619D01*
X167229166Y-79192380D02*
X166752976Y-79192380D01*
X166752976Y-78192380D01*
X165324404Y-75700000D02*
X165229166Y-75652380D01*
X165086309Y-75652380D01*
X164943452Y-75700000D01*
X164848214Y-75795238D01*
X164800595Y-75890476D01*
X164752976Y-76080952D01*
X164752976Y-76223809D01*
X164800595Y-76414285D01*
X164848214Y-76509523D01*
X164943452Y-76604761D01*
X165086309Y-76652380D01*
X165181547Y-76652380D01*
X165324404Y-76604761D01*
X165372023Y-76557142D01*
X165372023Y-76223809D01*
X165181547Y-76223809D01*
X165800595Y-76652380D02*
X165800595Y-75652380D01*
X166372023Y-76652380D01*
X166372023Y-75652380D01*
X166848214Y-76652380D02*
X166848214Y-75652380D01*
X167086309Y-75652380D01*
X167229166Y-75700000D01*
X167324404Y-75795238D01*
X167372023Y-75890476D01*
X167419642Y-76080952D01*
X167419642Y-76223809D01*
X167372023Y-76414285D01*
X167324404Y-76509523D01*
X167229166Y-76604761D01*
X167086309Y-76652380D01*
X166848214Y-76652380D01*
X164705357Y-73112380D02*
X165324404Y-73112380D01*
X164991071Y-73493333D01*
X165133928Y-73493333D01*
X165229166Y-73540952D01*
X165276785Y-73588571D01*
X165324404Y-73683809D01*
X165324404Y-73921904D01*
X165276785Y-74017142D01*
X165229166Y-74064761D01*
X165133928Y-74112380D01*
X164848214Y-74112380D01*
X164752976Y-74064761D01*
X164705357Y-74017142D01*
X165610119Y-73112380D02*
X165943452Y-74112380D01*
X166276785Y-73112380D01*
X166514880Y-73112380D02*
X167133928Y-73112380D01*
X166800595Y-73493333D01*
X166943452Y-73493333D01*
X167038690Y-73540952D01*
X167086309Y-73588571D01*
X167133928Y-73683809D01*
X167133928Y-73921904D01*
X167086309Y-74017142D01*
X167038690Y-74064761D01*
X166943452Y-74112380D01*
X166657738Y-74112380D01*
X166562500Y-74064761D01*
X166514880Y-74017142D01*
X168276785Y-73064761D02*
X167419642Y-74350476D01*
X168467261Y-73112380D02*
X168800595Y-74112380D01*
X169133928Y-73112380D01*
X170038690Y-74017142D02*
X169991071Y-74064761D01*
X169848214Y-74112380D01*
X169752976Y-74112380D01*
X169610119Y-74064761D01*
X169514880Y-73969523D01*
X169467261Y-73874285D01*
X169419642Y-73683809D01*
X169419642Y-73540952D01*
X169467261Y-73350476D01*
X169514880Y-73255238D01*
X169610119Y-73160000D01*
X169752976Y-73112380D01*
X169848214Y-73112380D01*
X169991071Y-73160000D01*
X170038690Y-73207619D01*
X171038690Y-74017142D02*
X170991071Y-74064761D01*
X170848214Y-74112380D01*
X170752976Y-74112380D01*
X170610119Y-74064761D01*
X170514880Y-73969523D01*
X170467261Y-73874285D01*
X170419642Y-73683809D01*
X170419642Y-73540952D01*
X170467261Y-73350476D01*
X170514880Y-73255238D01*
X170610119Y-73160000D01*
X170752976Y-73112380D01*
X170848214Y-73112380D01*
X170991071Y-73160000D01*
X171038690Y-73207619D01*
X164752976Y-89304761D02*
X164895833Y-89352380D01*
X165133928Y-89352380D01*
X165229166Y-89304761D01*
X165276785Y-89257142D01*
X165324404Y-89161904D01*
X165324404Y-89066666D01*
X165276785Y-88971428D01*
X165229166Y-88923809D01*
X165133928Y-88876190D01*
X164943452Y-88828571D01*
X164848214Y-88780952D01*
X164800595Y-88733333D01*
X164752976Y-88638095D01*
X164752976Y-88542857D01*
X164800595Y-88447619D01*
X164848214Y-88400000D01*
X164943452Y-88352380D01*
X165181547Y-88352380D01*
X165324404Y-88400000D01*
X165752976Y-89352380D02*
X165752976Y-88352380D01*
X165991071Y-88352380D01*
X166133928Y-88400000D01*
X166229166Y-88495238D01*
X166276785Y-88590476D01*
X166324404Y-88780952D01*
X166324404Y-88923809D01*
X166276785Y-89114285D01*
X166229166Y-89209523D01*
X166133928Y-89304761D01*
X165991071Y-89352380D01*
X165752976Y-89352380D01*
X166705357Y-89066666D02*
X167181547Y-89066666D01*
X166610119Y-89352380D02*
X166943452Y-88352380D01*
X167276785Y-89352380D01*
X165324404Y-96020000D02*
X165229166Y-95972380D01*
X165086309Y-95972380D01*
X164943452Y-96020000D01*
X164848214Y-96115238D01*
X164800595Y-96210476D01*
X164752976Y-96400952D01*
X164752976Y-96543809D01*
X164800595Y-96734285D01*
X164848214Y-96829523D01*
X164943452Y-96924761D01*
X165086309Y-96972380D01*
X165181547Y-96972380D01*
X165324404Y-96924761D01*
X165372023Y-96877142D01*
X165372023Y-96543809D01*
X165181547Y-96543809D01*
X165800595Y-96972380D02*
X165800595Y-95972380D01*
X166372023Y-96972380D01*
X166372023Y-95972380D01*
X166848214Y-96972380D02*
X166848214Y-95972380D01*
X167086309Y-95972380D01*
X167229166Y-96020000D01*
X167324404Y-96115238D01*
X167372023Y-96210476D01*
X167419642Y-96400952D01*
X167419642Y-96543809D01*
X167372023Y-96734285D01*
X167324404Y-96829523D01*
X167229166Y-96924761D01*
X167086309Y-96972380D01*
X166848214Y-96972380D01*
X164705357Y-93432380D02*
X165324404Y-93432380D01*
X164991071Y-93813333D01*
X165133928Y-93813333D01*
X165229166Y-93860952D01*
X165276785Y-93908571D01*
X165324404Y-94003809D01*
X165324404Y-94241904D01*
X165276785Y-94337142D01*
X165229166Y-94384761D01*
X165133928Y-94432380D01*
X164848214Y-94432380D01*
X164752976Y-94384761D01*
X164705357Y-94337142D01*
X165610119Y-93432380D02*
X165943452Y-94432380D01*
X166276785Y-93432380D01*
X166514880Y-93432380D02*
X167133928Y-93432380D01*
X166800595Y-93813333D01*
X166943452Y-93813333D01*
X167038690Y-93860952D01*
X167086309Y-93908571D01*
X167133928Y-94003809D01*
X167133928Y-94241904D01*
X167086309Y-94337142D01*
X167038690Y-94384761D01*
X166943452Y-94432380D01*
X166657738Y-94432380D01*
X166562500Y-94384761D01*
X166514880Y-94337142D01*
X168276785Y-93384761D02*
X167419642Y-94670476D01*
X168467261Y-93432380D02*
X168800595Y-94432380D01*
X169133928Y-93432380D01*
X170038690Y-94337142D02*
X169991071Y-94384761D01*
X169848214Y-94432380D01*
X169752976Y-94432380D01*
X169610119Y-94384761D01*
X169514880Y-94289523D01*
X169467261Y-94194285D01*
X169419642Y-94003809D01*
X169419642Y-93860952D01*
X169467261Y-93670476D01*
X169514880Y-93575238D01*
X169610119Y-93480000D01*
X169752976Y-93432380D01*
X169848214Y-93432380D01*
X169991071Y-93480000D01*
X170038690Y-93527619D01*
X171038690Y-94337142D02*
X170991071Y-94384761D01*
X170848214Y-94432380D01*
X170752976Y-94432380D01*
X170610119Y-94384761D01*
X170514880Y-94289523D01*
X170467261Y-94194285D01*
X170419642Y-94003809D01*
X170419642Y-93860952D01*
X170467261Y-93670476D01*
X170514880Y-93575238D01*
X170610119Y-93480000D01*
X170752976Y-93432380D01*
X170848214Y-93432380D01*
X170991071Y-93480000D01*
X171038690Y-93527619D01*
X164752976Y-91844761D02*
X164895833Y-91892380D01*
X165133928Y-91892380D01*
X165229166Y-91844761D01*
X165276785Y-91797142D01*
X165324404Y-91701904D01*
X165324404Y-91606666D01*
X165276785Y-91511428D01*
X165229166Y-91463809D01*
X165133928Y-91416190D01*
X164943452Y-91368571D01*
X164848214Y-91320952D01*
X164800595Y-91273333D01*
X164752976Y-91178095D01*
X164752976Y-91082857D01*
X164800595Y-90987619D01*
X164848214Y-90940000D01*
X164943452Y-90892380D01*
X165181547Y-90892380D01*
X165324404Y-90940000D01*
X166324404Y-91797142D02*
X166276785Y-91844761D01*
X166133928Y-91892380D01*
X166038690Y-91892380D01*
X165895833Y-91844761D01*
X165800595Y-91749523D01*
X165752976Y-91654285D01*
X165705357Y-91463809D01*
X165705357Y-91320952D01*
X165752976Y-91130476D01*
X165800595Y-91035238D01*
X165895833Y-90940000D01*
X166038690Y-90892380D01*
X166133928Y-90892380D01*
X166276785Y-90940000D01*
X166324404Y-90987619D01*
X167229166Y-91892380D02*
X166752976Y-91892380D01*
X166752976Y-90892380D01*
X161107619Y-98512380D02*
X161298095Y-98512380D01*
X161393333Y-98560000D01*
X161488571Y-98655238D01*
X161536190Y-98845714D01*
X161536190Y-99179047D01*
X161488571Y-99369523D01*
X161393333Y-99464761D01*
X161298095Y-99512380D01*
X161107619Y-99512380D01*
X161012380Y-99464761D01*
X160917142Y-99369523D01*
X160869523Y-99179047D01*
X160869523Y-98845714D01*
X160917142Y-98655238D01*
X161012380Y-98560000D01*
X161107619Y-98512380D01*
X162440952Y-99512380D02*
X161964761Y-99512380D01*
X161964761Y-98512380D01*
X162774285Y-98988571D02*
X163107619Y-98988571D01*
X163250476Y-99512380D02*
X162774285Y-99512380D01*
X162774285Y-98512380D01*
X163250476Y-98512380D01*
X163679047Y-99512380D02*
X163679047Y-98512380D01*
X163917142Y-98512380D01*
X164060000Y-98560000D01*
X164155238Y-98655238D01*
X164202857Y-98750476D01*
X164250476Y-98940952D01*
X164250476Y-99083809D01*
X164202857Y-99274285D01*
X164155238Y-99369523D01*
X164060000Y-99464761D01*
X163917142Y-99512380D01*
X163679047Y-99512380D01*
X160464761Y-71477142D02*
X160417142Y-71524761D01*
X160274285Y-71572380D01*
X160179047Y-71572380D01*
X160036190Y-71524761D01*
X159940952Y-71429523D01*
X159893333Y-71334285D01*
X159845714Y-71143809D01*
X159845714Y-71000952D01*
X159893333Y-70810476D01*
X159940952Y-70715238D01*
X160036190Y-70620000D01*
X160179047Y-70572380D01*
X160274285Y-70572380D01*
X160417142Y-70620000D01*
X160464761Y-70667619D01*
X161464761Y-71477142D02*
X161417142Y-71524761D01*
X161274285Y-71572380D01*
X161179047Y-71572380D01*
X161036190Y-71524761D01*
X160940952Y-71429523D01*
X160893333Y-71334285D01*
X160845714Y-71143809D01*
X160845714Y-71000952D01*
X160893333Y-70810476D01*
X160940952Y-70715238D01*
X161036190Y-70620000D01*
X161179047Y-70572380D01*
X161274285Y-70572380D01*
X161417142Y-70620000D01*
X161464761Y-70667619D01*
X161845714Y-71524761D02*
X161988571Y-71572380D01*
X162226666Y-71572380D01*
X162321904Y-71524761D01*
X162369523Y-71477142D01*
X162417142Y-71381904D01*
X162417142Y-71286666D01*
X162369523Y-71191428D01*
X162321904Y-71143809D01*
X162226666Y-71096190D01*
X162036190Y-71048571D01*
X161940952Y-71000952D01*
X161893333Y-70953333D01*
X161845714Y-70858095D01*
X161845714Y-70762857D01*
X161893333Y-70667619D01*
X161940952Y-70620000D01*
X162036190Y-70572380D01*
X162274285Y-70572380D01*
X162417142Y-70620000D01*
X162988571Y-71000952D02*
X162893333Y-70953333D01*
X162845714Y-70905714D01*
X162798095Y-70810476D01*
X162798095Y-70762857D01*
X162845714Y-70667619D01*
X162893333Y-70620000D01*
X162988571Y-70572380D01*
X163179047Y-70572380D01*
X163274285Y-70620000D01*
X163321904Y-70667619D01*
X163369523Y-70762857D01*
X163369523Y-70810476D01*
X163321904Y-70905714D01*
X163274285Y-70953333D01*
X163179047Y-71000952D01*
X162988571Y-71000952D01*
X162893333Y-71048571D01*
X162845714Y-71096190D01*
X162798095Y-71191428D01*
X162798095Y-71381904D01*
X162845714Y-71477142D01*
X162893333Y-71524761D01*
X162988571Y-71572380D01*
X163179047Y-71572380D01*
X163274285Y-71524761D01*
X163321904Y-71477142D01*
X163369523Y-71381904D01*
X163369523Y-71191428D01*
X163321904Y-71096190D01*
X163274285Y-71048571D01*
X163179047Y-71000952D01*
X164321904Y-71572380D02*
X163750476Y-71572380D01*
X164036190Y-71572380D02*
X164036190Y-70572380D01*
X163940952Y-70715238D01*
X163845714Y-70810476D01*
X163750476Y-70858095D01*
X165274285Y-71572380D02*
X164702857Y-71572380D01*
X164988571Y-71572380D02*
X164988571Y-70572380D01*
X164893333Y-70715238D01*
X164798095Y-70810476D01*
X164702857Y-70858095D01*
X122966071Y-90940000D02*
X122870833Y-90892380D01*
X122727976Y-90892380D01*
X122585119Y-90940000D01*
X122489880Y-91035238D01*
X122442261Y-91130476D01*
X122394642Y-91320952D01*
X122394642Y-91463809D01*
X122442261Y-91654285D01*
X122489880Y-91749523D01*
X122585119Y-91844761D01*
X122727976Y-91892380D01*
X122823214Y-91892380D01*
X122966071Y-91844761D01*
X123013690Y-91797142D01*
X123013690Y-91463809D01*
X122823214Y-91463809D01*
X123442261Y-91892380D02*
X123442261Y-90892380D01*
X124013690Y-91892380D01*
X124013690Y-90892380D01*
X124489880Y-91892380D02*
X124489880Y-90892380D01*
X124727976Y-90892380D01*
X124870833Y-90940000D01*
X124966071Y-91035238D01*
X125013690Y-91130476D01*
X125061309Y-91320952D01*
X125061309Y-91463809D01*
X125013690Y-91654285D01*
X124966071Y-91749523D01*
X124870833Y-91844761D01*
X124727976Y-91892380D01*
X124489880Y-91892380D01*
X126204166Y-90844761D02*
X125347023Y-92130476D01*
X126537500Y-91511428D02*
X127299404Y-91511428D01*
X124299404Y-89352380D02*
X124299404Y-88352380D01*
X124537500Y-88352380D01*
X124680357Y-88400000D01*
X124775595Y-88495238D01*
X124823214Y-88590476D01*
X124870833Y-88780952D01*
X124870833Y-88923809D01*
X124823214Y-89114285D01*
X124775595Y-89209523D01*
X124680357Y-89304761D01*
X124537500Y-89352380D01*
X124299404Y-89352380D01*
X125251785Y-89066666D02*
X125727976Y-89066666D01*
X125156547Y-89352380D02*
X125489880Y-88352380D01*
X125823214Y-89352380D01*
X126013690Y-88352380D02*
X126585119Y-88352380D01*
X126299404Y-89352380D02*
X126299404Y-88352380D01*
X126870833Y-89066666D02*
X127347023Y-89066666D01*
X126775595Y-89352380D02*
X127108928Y-88352380D01*
X127442261Y-89352380D01*
X122632738Y-85812380D02*
X123251785Y-85812380D01*
X122918452Y-86193333D01*
X123061309Y-86193333D01*
X123156547Y-86240952D01*
X123204166Y-86288571D01*
X123251785Y-86383809D01*
X123251785Y-86621904D01*
X123204166Y-86717142D01*
X123156547Y-86764761D01*
X123061309Y-86812380D01*
X122775595Y-86812380D01*
X122680357Y-86764761D01*
X122632738Y-86717142D01*
X123537500Y-85812380D02*
X123870833Y-86812380D01*
X124204166Y-85812380D01*
X124442261Y-85812380D02*
X125061309Y-85812380D01*
X124727976Y-86193333D01*
X124870833Y-86193333D01*
X124966071Y-86240952D01*
X125013690Y-86288571D01*
X125061309Y-86383809D01*
X125061309Y-86621904D01*
X125013690Y-86717142D01*
X124966071Y-86764761D01*
X124870833Y-86812380D01*
X124585119Y-86812380D01*
X124489880Y-86764761D01*
X124442261Y-86717142D01*
X126204166Y-85764761D02*
X125347023Y-87050476D01*
X126537500Y-86431428D02*
X127299404Y-86431428D01*
X126918452Y-86812380D02*
X126918452Y-86050476D01*
X127420952Y-94432380D02*
X127420952Y-93432380D01*
X127659047Y-93432380D01*
X127801904Y-93480000D01*
X127897142Y-93575238D01*
X127944761Y-93670476D01*
X127992380Y-93860952D01*
X127992380Y-94003809D01*
X127944761Y-94194285D01*
X127897142Y-94289523D01*
X127801904Y-94384761D01*
X127659047Y-94432380D01*
X127420952Y-94432380D01*
X128420952Y-94432380D02*
X128420952Y-93432380D01*
X128420952Y-93908571D02*
X128992380Y-93908571D01*
X128992380Y-94432380D02*
X128992380Y-93432380D01*
X129325714Y-93432380D02*
X129897142Y-93432380D01*
X129611428Y-94432380D02*
X129611428Y-93432380D01*
X130182857Y-93527619D02*
X130230476Y-93480000D01*
X130325714Y-93432380D01*
X130563809Y-93432380D01*
X130659047Y-93480000D01*
X130706666Y-93527619D01*
X130754285Y-93622857D01*
X130754285Y-93718095D01*
X130706666Y-93860952D01*
X130135238Y-94432380D01*
X130754285Y-94432380D01*
X131135238Y-93527619D02*
X131182857Y-93480000D01*
X131278095Y-93432380D01*
X131516190Y-93432380D01*
X131611428Y-93480000D01*
X131659047Y-93527619D01*
X131706666Y-93622857D01*
X131706666Y-93718095D01*
X131659047Y-93860952D01*
X131087619Y-94432380D01*
X131706666Y-94432380D01*
X125251785Y-80780000D02*
X125156547Y-80732380D01*
X125013690Y-80732380D01*
X124870833Y-80780000D01*
X124775595Y-80875238D01*
X124727976Y-80970476D01*
X124680357Y-81160952D01*
X124680357Y-81303809D01*
X124727976Y-81494285D01*
X124775595Y-81589523D01*
X124870833Y-81684761D01*
X125013690Y-81732380D01*
X125108928Y-81732380D01*
X125251785Y-81684761D01*
X125299404Y-81637142D01*
X125299404Y-81303809D01*
X125108928Y-81303809D01*
X125727976Y-81732380D02*
X125727976Y-80732380D01*
X126299404Y-81732380D01*
X126299404Y-80732380D01*
X126775595Y-81732380D02*
X126775595Y-80732380D01*
X127013690Y-80732380D01*
X127156547Y-80780000D01*
X127251785Y-80875238D01*
X127299404Y-80970476D01*
X127347023Y-81160952D01*
X127347023Y-81303809D01*
X127299404Y-81494285D01*
X127251785Y-81589523D01*
X127156547Y-81684761D01*
X127013690Y-81732380D01*
X126775595Y-81732380D01*
X126442261Y-78192380D02*
X125966071Y-78192380D01*
X125918452Y-78668571D01*
X125966071Y-78620952D01*
X126061309Y-78573333D01*
X126299404Y-78573333D01*
X126394642Y-78620952D01*
X126442261Y-78668571D01*
X126489880Y-78763809D01*
X126489880Y-79001904D01*
X126442261Y-79097142D01*
X126394642Y-79144761D01*
X126299404Y-79192380D01*
X126061309Y-79192380D01*
X125966071Y-79144761D01*
X125918452Y-79097142D01*
X126775595Y-78192380D02*
X127108928Y-79192380D01*
X127442261Y-78192380D01*
X123585119Y-75652380D02*
X124156547Y-75652380D01*
X123870833Y-76652380D02*
X123870833Y-75652380D01*
X124680357Y-75652380D02*
X124870833Y-75652380D01*
X124966071Y-75700000D01*
X125061309Y-75795238D01*
X125108928Y-75985714D01*
X125108928Y-76319047D01*
X125061309Y-76509523D01*
X124966071Y-76604761D01*
X124870833Y-76652380D01*
X124680357Y-76652380D01*
X124585119Y-76604761D01*
X124489880Y-76509523D01*
X124442261Y-76319047D01*
X124442261Y-75985714D01*
X124489880Y-75795238D01*
X124585119Y-75700000D01*
X124680357Y-75652380D01*
X125299404Y-76747619D02*
X126061309Y-76747619D01*
X126299404Y-76652380D02*
X126299404Y-75652380D01*
X126537500Y-75652380D01*
X126680357Y-75700000D01*
X126775595Y-75795238D01*
X126823214Y-75890476D01*
X126870833Y-76080952D01*
X126870833Y-76223809D01*
X126823214Y-76414285D01*
X126775595Y-76509523D01*
X126680357Y-76604761D01*
X126537500Y-76652380D01*
X126299404Y-76652380D01*
X127299404Y-76652380D02*
X127299404Y-75652380D01*
X128897142Y-74112380D02*
X128420952Y-74112380D01*
X128420952Y-73112380D01*
X129230476Y-73588571D02*
X129563809Y-73588571D01*
X129706666Y-74112380D02*
X129230476Y-74112380D01*
X129230476Y-73112380D01*
X129706666Y-73112380D01*
X130135238Y-74112380D02*
X130135238Y-73112380D01*
X130373333Y-73112380D01*
X130516190Y-73160000D01*
X130611428Y-73255238D01*
X130659047Y-73350476D01*
X130706666Y-73540952D01*
X130706666Y-73683809D01*
X130659047Y-73874285D01*
X130611428Y-73969523D01*
X130516190Y-74064761D01*
X130373333Y-74112380D01*
X130135238Y-74112380D01*
D12*
%TO.C,R1*%
X146590000Y-74830000D02*
X146590000Y-77570000D01*
X146590000Y-77570000D02*
X153130000Y-77570000D01*
X153130000Y-77570000D02*
X153130000Y-74830000D01*
X153130000Y-74830000D02*
X146590000Y-74830000D01*
X145820000Y-76200000D02*
X146590000Y-76200000D01*
X153900000Y-76200000D02*
X153130000Y-76200000D01*
%TO.C,C1*%
X137200000Y-106720000D02*
G75*
G03*
X137200000Y-106720000I-5120000J0D01*
G01*
%TO.C,J_WS2812B_1*%
X128210000Y-82610000D02*
X130870000Y-82610000D01*
X128210000Y-77470000D02*
X128210000Y-82610000D01*
X130870000Y-77470000D02*
X130870000Y-82610000D01*
X128210000Y-77470000D02*
X130870000Y-77470000D01*
X128210000Y-76200000D02*
X128210000Y-74870000D01*
X128210000Y-74870000D02*
X129540000Y-74870000D01*
%TO.C,J_OLED_1*%
X161230000Y-97850000D02*
X163890000Y-97850000D01*
X161230000Y-90170000D02*
X161230000Y-97850000D01*
X163890000Y-90170000D02*
X163890000Y-97850000D01*
X161230000Y-90170000D02*
X163890000Y-90170000D01*
X161230000Y-88900000D02*
X161230000Y-87570000D01*
X161230000Y-87570000D02*
X162560000Y-87570000D01*
%TO.C,J_DHT22*%
X128210000Y-92770000D02*
X130870000Y-92770000D01*
X128210000Y-87630000D02*
X128210000Y-92770000D01*
X130870000Y-87630000D02*
X130870000Y-92770000D01*
X128210000Y-87630000D02*
X130870000Y-87630000D01*
X128210000Y-86360000D02*
X128210000Y-85030000D01*
X128210000Y-85030000D02*
X129540000Y-85030000D01*
%TO.C,J1*%
X138370000Y-80070000D02*
X141030000Y-80070000D01*
X138370000Y-77470000D02*
X138370000Y-80070000D01*
X141030000Y-77470000D02*
X141030000Y-80070000D01*
X138370000Y-77470000D02*
X141030000Y-77470000D01*
X138370000Y-76200000D02*
X138370000Y-74870000D01*
X138370000Y-74870000D02*
X139700000Y-74870000D01*
%TO.C,J_CCS811*%
X161230000Y-85150000D02*
X163890000Y-85150000D01*
X161230000Y-74930000D02*
X161230000Y-85150000D01*
X163890000Y-74930000D02*
X163890000Y-85150000D01*
X161230000Y-74930000D02*
X163890000Y-74930000D01*
X161230000Y-73660000D02*
X161230000Y-72330000D01*
X161230000Y-72330000D02*
X162560000Y-72330000D01*
%TO.C,U1*%
X135660000Y-99780000D02*
X158980000Y-99780000D01*
X133120000Y-92880000D02*
X133120000Y-67450000D01*
X158980000Y-99780000D02*
X158980000Y-67450000D01*
X156860000Y-65320000D02*
X135250000Y-65320000D01*
D11*
G36*
X132080000Y-73025000D02*
G01*
X132080000Y-74295000D01*
X132715000Y-73660000D01*
X132080000Y-73025000D01*
G37*
X132080000Y-73025000D02*
X132080000Y-74295000D01*
X132715000Y-73660000D01*
X132080000Y-73025000D01*
D12*
X133120000Y-92880000D02*
X135660000Y-92880000D01*
X135660000Y-92880000D02*
X135660000Y-99780000D01*
X156850000Y-65320000D02*
G75*
G02*
X158980000Y-67450000I0J-2130000D01*
G01*
X133120000Y-67450000D02*
G75*
G02*
X135250000Y-65320000I2130000J0D01*
G01*
%TD*%
M02*
